STARTFONT 2.1
FONT -FontForge-Good Times Rg-Book-R-Normal--19-180-75-75-P-141-ISO10646-1
SIZE 18 75 75
FONTBOUNDINGBOX 38 23 -5 -4
COMMENT "Generated by fontforge, http://fontforge.sourceforge.net"
COMMENT "(c) 1998-2012 Typodermic Fonts Inc. See attached license agreement. If agreement is missing visit typodermicfonts.com for more info. Languages by Chikako Larabie"
STARTPROPERTIES 39
FOUNDRY "FontForge"
FAMILY_NAME "Good Times Rg"
WEIGHT_NAME "Book"
SLANT "R"
SETWIDTH_NAME "Normal"
ADD_STYLE_NAME ""
PIXEL_SIZE 19
POINT_SIZE 180
RESOLUTION_X 75
RESOLUTION_Y 75
SPACING "P"
AVERAGE_WIDTH 141
CHARSET_REGISTRY "ISO10646"
CHARSET_ENCODING "1"
FONTNAME_REGISTRY ""
CHARSET_COLLECTIONS "ISO8859-2 ISO8859-9 ISO8859-4 ISO10646-1"
FONT_NAME "GoodTimesRg-Regular"
FACE_NAME "GoodTimesRg-Regular"
COPYRIGHT "(c) 1998-2012 Typodermic Fonts Inc. See attached license agreement. If agreement is missing visit typodermicfonts.com for more info. Languages by Chikako Larabie"
FONT_VERSION "4.001"
FONT_ASCENT 15
FONT_DESCENT 4
UNDERLINE_POSITION -3
UNDERLINE_THICKNESS 1
X_HEIGHT 13
CAP_HEIGHT 13
RAW_ASCENT 799
RAW_DESCENT 201
NORM_SPACE 6
RELATIVE_WEIGHT 40
RELATIVE_SETWIDTH 50
SUPERSCRIPT_X 0
SUPERSCRIPT_Y 5
SUPERSCRIPT_SIZE 5
SUBSCRIPT_X 0
SUBSCRIPT_Y 0
SUBSCRIPT_SIZE 5
AVG_LOWERCASE_WIDTH 162
AVG_UPPERCASE_WIDTH 161
ENDPROPERTIES
CHARS 372
STARTCHAR space
ENCODING 32
SWIDTH 294 0
DWIDTH 6 0
BBX 1 1 0 0
BITMAP
00
ENDCHAR
STARTCHAR exclam
ENCODING 33
SWIDTH 298 0
DWIDTH 6 0
BBX 2 14 2 0
BITMAP
C0
C0
C0
C0
C0
C0
C0
C0
C0
C0
00
00
C0
C0
ENDCHAR
STARTCHAR quotedbl
ENCODING 34
SWIDTH 452 0
DWIDTH 9 0
BBX 6 5 1 9
BITMAP
EC
EC
6C
4C
4C
ENDCHAR
STARTCHAR numbersign
ENCODING 35
SWIDTH 697 0
DWIDTH 13 0
BBX 12 14 1 0
BITMAP
0C60
0C40
0CC0
7FF0
7FF0
1980
1180
3180
FFC0
FFC0
6300
6200
6600
C600
ENDCHAR
STARTCHAR dollar
ENCODING 36
SWIDTH 744 0
DWIDTH 14 0
BBX 12 14 1 0
BITMAP
0200
3FE0
7FE0
E200
C200
C200
7FE0
3FF0
0230
0230
0270
FFF0
FFE0
0200
ENDCHAR
STARTCHAR percent
ENCODING 37
SWIDTH 965 0
DWIDTH 18 0
BBX 17 16 1 -1
BITMAP
000600
780C00
C41800
821000
822000
826000
C4C000
398000
011E00
032300
066100
0C6180
082100
102300
301E00
600000
ENDCHAR
STARTCHAR ampersand
ENCODING 38
SWIDTH 759 0
DWIDTH 14 0
BBX 13 14 1 0
BITMAP
3E00
7E00
F000
E000
E000
7000
3FF0
7FF0
E0C0
C0C0
E0C0
F0C0
7FF8
3FF8
ENDCHAR
STARTCHAR quotesingle
ENCODING 39
SWIDTH 255 0
DWIDTH 5 0
BBX 3 5 1 9
BITMAP
E0
E0
C0
40
40
ENDCHAR
STARTCHAR parenleft
ENCODING 40
SWIDTH 356 0
DWIDTH 7 0
BBX 4 18 2 -2
BITMAP
30
60
60
40
C0
C0
C0
80
80
80
80
C0
C0
C0
40
60
60
30
ENDCHAR
STARTCHAR parenright
ENCODING 41
SWIDTH 355 0
DWIDTH 7 0
BBX 4 18 1 -2
BITMAP
C0
60
60
20
20
30
30
30
30
30
30
30
30
20
20
60
60
C0
ENDCHAR
STARTCHAR asterisk
ENCODING 42
SWIDTH 469 0
DWIDTH 9 0
BBX 7 6 1 8
BITMAP
10
10
FE
38
28
6C
ENDCHAR
STARTCHAR plus
ENCODING 43
SWIDTH 690 0
DWIDTH 13 0
BBX 11 11 1 2
BITMAP
0400
0400
0400
0400
0400
FFE0
FFE0
0400
0400
0400
0400
ENDCHAR
STARTCHAR comma
ENCODING 44
SWIDTH 259 0
DWIDTH 5 0
BBX 3 5 1 -2
BITMAP
E0
C0
C0
C0
C0
ENDCHAR
STARTCHAR hyphen
ENCODING 45
SWIDTH 296 0
DWIDTH 6 0
BBX 4 2 1 6
BITMAP
F0
F0
ENDCHAR
STARTCHAR period
ENCODING 46
SWIDTH 262 0
DWIDTH 5 0
BBX 3 2 1 0
BITMAP
E0
E0
ENDCHAR
STARTCHAR slash
ENCODING 47
SWIDTH 444 0
DWIDTH 8 0
BBX 8 14 0 0
BITMAP
03
03
02
06
04
0C
08
18
10
30
20
60
60
C0
ENDCHAR
STARTCHAR zero
ENCODING 48
SWIDTH 838 0
DWIDTH 16 0
BBX 14 14 1 0
BITMAP
0FC0
3FF0
7CF8
7038
E01C
C01C
C00C
C00C
C01C
E01C
7038
7CF0
1FE0
0FC0
ENDCHAR
STARTCHAR one
ENCODING 49
SWIDTH 385 0
DWIDTH 7 0
BBX 6 14 0 0
BITMAP
F0
F8
3C
0C
0C
0C
0C
0C
0C
0C
0C
0C
0C
0C
ENDCHAR
STARTCHAR two
ENCODING 50
SWIDTH 825 0
DWIDTH 16 0
BBX 14 14 1 0
BITMAP
FFF0
FFF8
0038
001C
001C
0038
7FF8
7FF0
E000
C000
C000
C000
FFF8
FFF8
ENDCHAR
STARTCHAR three
ENCODING 51
SWIDTH 827 0
DWIDTH 16 0
BBX 14 14 1 0
BITMAP
FFF0
FFF8
0038
001C
0018
0038
1FF0
1FF8
001C
001C
001C
0038
FFF8
FFF0
ENDCHAR
STARTCHAR four
ENCODING 52
SWIDTH 845 0
DWIDTH 16 0
BBX 15 14 1 0
BITMAP
C038
C038
C038
C038
C038
C038
C038
E038
FFFE
7FFE
0038
0038
0038
0038
ENDCHAR
STARTCHAR five
ENCODING 53
SWIDTH 885 0
DWIDTH 17 0
BBX 15 14 1 0
BITMAP
FFFC
FFFC
E000
E000
E000
E000
FFFC
FFFC
000E
0006
000E
001E
FFFC
FFF8
ENDCHAR
STARTCHAR six
ENCODING 54
SWIDTH 872 0
DWIDTH 17 0
BBX 15 14 1 0
BITMAP
1FFC
3FFC
7800
E000
E000
C000
FFF8
FFFC
C00C
E00E
E00E
781C
3FFC
1FF8
ENDCHAR
STARTCHAR seven
ENCODING 55
SWIDTH 756 0
DWIDTH 14 0
BBX 13 14 1 0
BITMAP
FFF8
FFF8
0070
0070
00E0
01C0
0380
0700
0F00
0E00
1C00
3800
7000
E000
ENDCHAR
STARTCHAR eight
ENCODING 56
SWIDTH 898 0
DWIDTH 17 0
BBX 15 14 1 0
BITMAP
3FF8
7FFC
F01E
E00E
E00E
701C
3FF8
7FFC
E00E
C006
E006
F01E
7FFC
3FF8
ENDCHAR
STARTCHAR nine
ENCODING 57
SWIDTH 861 0
DWIDTH 16 0
BBX 15 14 1 0
BITMAP
3FE0
7FF8
F078
C01C
C00C
E00C
FFFE
7FFE
000C
000C
001C
007C
7FF8
7FE0
ENDCHAR
STARTCHAR colon
ENCODING 58
SWIDTH 262 0
DWIDTH 5 0
BBX 3 9 1 0
BITMAP
E0
E0
00
00
00
00
00
E0
E0
ENDCHAR
STARTCHAR semicolon
ENCODING 59
SWIDTH 262 0
DWIDTH 5 0
BBX 3 11 1 -2
BITMAP
E0
E0
00
00
00
00
E0
C0
C0
C0
C0
ENDCHAR
STARTCHAR less
ENCODING 60
SWIDTH 690 0
DWIDTH 13 0
BBX 11 10 1 2
BITMAP
0060
01E0
0F00
3C00
E000
F000
1C00
0780
01E0
0020
ENDCHAR
STARTCHAR equal
ENCODING 61
SWIDTH 690 0
DWIDTH 13 0
BBX 11 7 1 4
BITMAP
FFE0
FFE0
0000
0000
0000
FFE0
FFE0
ENDCHAR
STARTCHAR greater
ENCODING 62
SWIDTH 690 0
DWIDTH 13 0
BBX 11 10 1 2
BITMAP
C000
F000
1E00
0780
00E0
01E0
0780
3C00
F000
C000
ENDCHAR
STARTCHAR question
ENCODING 63
SWIDTH 776 0
DWIDTH 15 0
BBX 13 14 1 0
BITMAP
FFE0
FFF0
0038
0018
0018
0038
3FF0
7FE0
6000
6000
0000
0000
7000
6000
ENDCHAR
STARTCHAR at
ENCODING 64
SWIDTH 833 0
DWIDTH 16 0
BBX 14 14 1 0
BITMAP
0FFC
3FFC
700C
600C
C7CC
CC4C
C84C
CC4C
CFFC
C7FC
6000
7000
3FFC
0FFC
ENDCHAR
STARTCHAR A
ENCODING 65
SWIDTH 989 0
DWIDTH 19 0
BBX 19 14 0 0
BITMAP
00C000
00E000
01F000
01F000
03B800
071800
061C00
0E0E00
0CFE00
1DFF00
380300
300380
7001C0
E001E0
ENDCHAR
STARTCHAR B
ENCODING 66
SWIDTH 891 0
DWIDTH 17 0
BBX 15 14 1 0
BITMAP
FFF8
FFFC
E01E
E00E
E00E
E01C
EFF8
EFFC
E00E
E006
E00E
E01E
FFFC
FFF8
ENDCHAR
STARTCHAR C
ENCODING 67
SWIDTH 829 0
DWIDTH 16 0
BBX 14 14 1 0
BITMAP
0FFC
3FFC
7C00
7000
E000
C000
C000
C000
C000
E000
7000
7C00
3FFC
0FFC
ENDCHAR
STARTCHAR D
ENCODING 68
SWIDTH 879 0
DWIDTH 17 0
BBX 15 14 1 0
BITMAP
FFE0
FFF8
E07C
E01C
E00E
E00E
E00E
E00E
E00E
E00C
E01C
E078
FFF0
FFE0
ENDCHAR
STARTCHAR E
ENCODING 69
SWIDTH 759 0
DWIDTH 14 0
BBX 13 14 1 0
BITMAP
FFF8
FFF8
E000
E000
E000
E000
EFF0
EFF0
E000
E000
E000
E000
FFF8
FFF8
ENDCHAR
STARTCHAR F
ENCODING 70
SWIDTH 705 0
DWIDTH 13 0
BBX 12 14 1 0
BITMAP
FFF0
FFF0
E000
E000
E000
E000
EFE0
EFE0
E000
E000
E000
E000
E000
E000
ENDCHAR
STARTCHAR G
ENCODING 71
SWIDTH 888 0
DWIDTH 17 0
BBX 15 14 1 0
BITMAP
0FFC
3FFC
7C00
7000
E000
C000
C3FE
C3FE
C00E
E00E
700E
7C0E
3FFE
0FFE
ENDCHAR
STARTCHAR H
ENCODING 72
SWIDTH 838 0
DWIDTH 16 0
BBX 14 14 1 0
BITMAP
E01C
E01C
E01C
E01C
E01C
E01C
EFFC
EFFC
E01C
E01C
E01C
E01C
E01C
E01C
ENDCHAR
STARTCHAR I
ENCODING 73
SWIDTH 267 0
DWIDTH 5 0
BBX 3 14 1 0
BITMAP
E0
E0
E0
E0
E0
E0
E0
E0
E0
E0
E0
E0
E0
E0
ENDCHAR
STARTCHAR J
ENCODING 74
SWIDTH 708 0
DWIDTH 13 0
BBX 12 14 0 0
BITMAP
0030
0030
0030
0030
0030
0030
0030
0030
0030
0030
0070
01F0
FFE0
FF80
ENDCHAR
STARTCHAR K
ENCODING 75
SWIDTH 875 0
DWIDTH 17 0
BBX 15 14 1 0
BITMAP
E01E
E078
E0F0
E1C0
E780
EF00
FC00
EE00
E700
E380
E1E0
E0F0
E038
E01E
ENDCHAR
STARTCHAR L
ENCODING 76
SWIDTH 707 0
DWIDTH 13 0
BBX 12 14 1 0
BITMAP
E000
E000
E000
E000
E000
E000
E000
E000
E000
E000
E000
E000
FFF0
FFF0
ENDCHAR
STARTCHAR M
ENCODING 77
SWIDTH 1115 0
DWIDTH 21 0
BBX 21 14 0 0
BITMAP
0C0180
0E0180
0E03C0
1F03C0
1B07C0
1B06C0
1B8EE0
398C60
31CC60
30D870
70F870
707830
607030
E03038
ENDCHAR
STARTCHAR N
ENCODING 78
SWIDTH 873 0
DWIDTH 17 0
BBX 14 14 1 0
BITMAP
C00C
E00C
F00C
F80C
DC0C
CE0C
C70C
C38C
C1CC
C0EC
C07C
C03C
C01C
C00C
ENDCHAR
STARTCHAR O
ENCODING 79
SWIDTH 968 0
DWIDTH 18 0
BBX 17 14 1 0
BITMAP
0FF800
3FFC00
7C1E00
700700
E00300
C00380
C00380
C00380
C00300
E00300
700700
7C1E00
3FFC00
0FF000
ENDCHAR
STARTCHAR P
ENCODING 80
SWIDTH 867 0
DWIDTH 16 0
BBX 15 14 1 0
BITMAP
FFF0
FFFC
E01C
E00E
E006
E006
E00E
E01C
EFFC
EFF0
E000
E000
E000
E000
ENDCHAR
STARTCHAR Q
ENCODING 81
SWIDTH 968 0
DWIDTH 18 0
BBX 17 14 1 0
BITMAP
0FF800
3FFC00
7C1E00
700700
E00300
C00380
C00380
C00380
C1E300
E07300
703F00
7C1E00
3FFE00
0FF380
ENDCHAR
STARTCHAR R
ENCODING 82
SWIDTH 921 0
DWIDTH 18 0
BBX 16 14 1 0
BITMAP
FFF8
FFFC
E01E
E00E
E006
E006
E006
E00E
EFFC
EFF8
E038
E01C
E00E
E007
ENDCHAR
STARTCHAR S
ENCODING 83
SWIDTH 880 0
DWIDTH 17 0
BBX 15 14 1 0
BITMAP
3FFC
7FFC
F000
E000
E000
F000
7FFC
3FFC
000E
0006
000E
001E
FFFC
FFF8
ENDCHAR
STARTCHAR T
ENCODING 84
SWIDTH 720 0
DWIDTH 14 0
BBX 13 14 0 0
BITMAP
FFF8
FFF8
0300
0300
0300
0300
0300
0300
0300
0300
0300
0300
0300
0300
ENDCHAR
STARTCHAR U
ENCODING 85
SWIDTH 889 0
DWIDTH 17 0
BBX 15 14 1 0
BITMAP
C006
C006
C006
C006
C006
C006
C006
C006
E00E
E00E
E00C
7C7C
3FF8
0FE0
ENDCHAR
STARTCHAR V
ENCODING 86
SWIDTH 989 0
DWIDTH 19 0
BBX 19 14 0 0
BITMAP
F001E0
7001C0
380380
380300
1C0700
0C0600
0E0E00
071C00
071800
03B800
01B000
01F000
00E000
00C000
ENDCHAR
STARTCHAR W
ENCODING 87
SWIDTH 1268 0
DWIDTH 24 0
BBX 24 14 0 0
BITMAP
E1C007
70E00E
30600C
38701C
1C3018
1C3838
0E1830
0E3C70
073C60
077EE0
03E6C0
03E7C0
01C380
00C300
ENDCHAR
STARTCHAR X
ENCODING 88
SWIDTH 1000 0
DWIDTH 19 0
BBX 18 14 0 0
BITMAP
7803C0
3C0700
0E0E00
071C00
03B800
01F000
00E000
01F000
03B800
071C00
0E0E00
1C0700
380380
F001C0
ENDCHAR
STARTCHAR Y
ENCODING 89
SWIDTH 926 0
DWIDTH 18 0
BBX 17 14 0 0
BITMAP
F00380
380700
3C0E00
1C1C00
0E1C00
073800
03F000
01E000
01C000
00C000
00C000
00C000
00C000
00C000
ENDCHAR
STARTCHAR Z
ENCODING 90
SWIDTH 802 0
DWIDTH 15 0
BBX 13 14 1 0
BITMAP
FFF8
FFF8
0078
00F0
01E0
03C0
0780
0F00
1E00
3C00
7800
F000
FFF8
FFF8
ENDCHAR
STARTCHAR bracketleft
ENCODING 91
SWIDTH 333 0
DWIDTH 6 0
BBX 3 18 2 -2
BITMAP
E0
E0
80
80
80
80
80
80
80
80
80
80
80
80
80
80
E0
E0
ENDCHAR
STARTCHAR backslash
ENCODING 92
SWIDTH 445 0
DWIDTH 8 0
BBX 8 14 0 0
BITMAP
C0
40
60
20
30
10
18
08
0C
04
06
06
03
03
ENDCHAR
STARTCHAR bracketright
ENCODING 93
SWIDTH 333 0
DWIDTH 6 0
BBX 3 18 1 -2
BITMAP
E0
E0
20
20
20
20
20
20
20
20
20
20
20
20
20
20
E0
E0
ENDCHAR
STARTCHAR asciicircum
ENCODING 94
SWIDTH 559 0
DWIDTH 11 0
BBX 8 9 1 5
BITMAP
08
1C
1C
34
26
62
63
43
C1
ENDCHAR
STARTCHAR underscore
ENCODING 95
SWIDTH 668 0
DWIDTH 13 0
BBX 13 1 0 -3
BITMAP
FFF8
ENDCHAR
STARTCHAR grave
ENCODING 96
SWIDTH 362 0
DWIDTH 7 0
BBX 5 2 1 15
BITMAP
E0
38
ENDCHAR
STARTCHAR a
ENCODING 97
SWIDTH 989 0
DWIDTH 19 0
BBX 19 14 0 0
BITMAP
00C000
00E000
01F000
01F000
03B800
071800
061C00
0E0E00
0CFE00
1DFF00
380300
300380
7001C0
E001E0
ENDCHAR
STARTCHAR b
ENCODING 98
SWIDTH 891 0
DWIDTH 17 0
BBX 15 14 1 0
BITMAP
FFF8
FFFC
E01E
E00E
E00E
E01C
EFF8
EFFC
E00E
E006
E00E
E01E
FFFC
FFF8
ENDCHAR
STARTCHAR c
ENCODING 99
SWIDTH 829 0
DWIDTH 16 0
BBX 14 14 1 0
BITMAP
0FFC
3FFC
7C00
7000
E000
C000
C000
C000
C000
E000
7000
7C00
3FFC
0FFC
ENDCHAR
STARTCHAR d
ENCODING 100
SWIDTH 879 0
DWIDTH 17 0
BBX 15 14 1 0
BITMAP
FFE0
FFF8
E07C
E01C
E00E
E00E
E00E
E00E
E00E
E00C
E01C
E078
FFF0
FFE0
ENDCHAR
STARTCHAR e
ENCODING 101
SWIDTH 759 0
DWIDTH 14 0
BBX 13 14 1 0
BITMAP
FFF8
FFF8
E000
E000
E000
E000
EFF0
EFF0
E000
E000
E000
E000
FFF8
FFF8
ENDCHAR
STARTCHAR f
ENCODING 102
SWIDTH 705 0
DWIDTH 13 0
BBX 12 14 1 0
BITMAP
FFF0
FFF0
E000
E000
E000
E000
EFE0
EFE0
E000
E000
E000
E000
E000
E000
ENDCHAR
STARTCHAR g
ENCODING 103
SWIDTH 888 0
DWIDTH 17 0
BBX 15 14 1 0
BITMAP
0FFC
3FFC
7C00
7000
E000
C000
C3FE
C3FE
C00E
E00E
700E
7C0E
3FFE
0FFE
ENDCHAR
STARTCHAR h
ENCODING 104
SWIDTH 838 0
DWIDTH 16 0
BBX 14 14 1 0
BITMAP
E01C
E01C
E01C
E01C
E01C
E01C
EFFC
EFFC
E01C
E01C
E01C
E01C
E01C
E01C
ENDCHAR
STARTCHAR i
ENCODING 105
SWIDTH 267 0
DWIDTH 5 0
BBX 3 14 1 0
BITMAP
E0
E0
E0
E0
E0
E0
E0
E0
E0
E0
E0
E0
E0
E0
ENDCHAR
STARTCHAR j
ENCODING 106
SWIDTH 708 0
DWIDTH 13 0
BBX 12 14 0 0
BITMAP
0030
0030
0030
0030
0030
0030
0030
0030
0030
0030
0070
01F0
FFE0
FF80
ENDCHAR
STARTCHAR k
ENCODING 107
SWIDTH 875 0
DWIDTH 17 0
BBX 15 14 1 0
BITMAP
E01E
E078
E0F0
E1C0
E780
EF00
FC00
EE00
E700
E380
E1E0
E0F0
E038
E01E
ENDCHAR
STARTCHAR l
ENCODING 108
SWIDTH 707 0
DWIDTH 13 0
BBX 12 14 1 0
BITMAP
E000
E000
E000
E000
E000
E000
E000
E000
E000
E000
E000
E000
FFF0
FFF0
ENDCHAR
STARTCHAR m
ENCODING 109
SWIDTH 1115 0
DWIDTH 21 0
BBX 21 14 0 0
BITMAP
0C0180
0E0180
0E03C0
1F03C0
1B07C0
1B06C0
1B8EE0
398C60
31CC60
30D870
70F870
707830
607030
E03038
ENDCHAR
STARTCHAR n
ENCODING 110
SWIDTH 873 0
DWIDTH 17 0
BBX 14 14 1 0
BITMAP
C00C
E00C
F00C
F80C
DC0C
CE0C
C70C
C38C
C1CC
C0EC
C07C
C03C
C01C
C00C
ENDCHAR
STARTCHAR o
ENCODING 111
SWIDTH 968 0
DWIDTH 18 0
BBX 17 14 1 0
BITMAP
0FF800
3FFC00
7C1E00
700700
E00300
C00380
C00380
C00380
C00300
E00300
700700
7C1E00
3FFC00
0FF000
ENDCHAR
STARTCHAR p
ENCODING 112
SWIDTH 867 0
DWIDTH 16 0
BBX 15 14 1 0
BITMAP
FFF0
FFFC
E01C
E00E
E006
E006
E00E
E01C
EFFC
EFF0
E000
E000
E000
E000
ENDCHAR
STARTCHAR q
ENCODING 113
SWIDTH 968 0
DWIDTH 18 0
BBX 17 14 1 0
BITMAP
0FF800
3FFC00
7C1E00
700700
E00300
C00380
C00380
C00380
C1E300
E07300
703F00
7C1E00
3FFE00
0FF380
ENDCHAR
STARTCHAR r
ENCODING 114
SWIDTH 921 0
DWIDTH 18 0
BBX 16 14 1 0
BITMAP
FFF8
FFFC
E01E
E00E
E006
E006
E006
E00E
EFFC
EFF8
E038
E01C
E00E
E007
ENDCHAR
STARTCHAR s
ENCODING 115
SWIDTH 880 0
DWIDTH 17 0
BBX 15 14 1 0
BITMAP
3FFC
7FFC
F000
E000
E000
F000
7FFC
3FFC
000E
0006
000E
001E
FFFC
FFF8
ENDCHAR
STARTCHAR t
ENCODING 116
SWIDTH 720 0
DWIDTH 14 0
BBX 13 14 0 0
BITMAP
FFF8
FFF8
0300
0300
0300
0300
0300
0300
0300
0300
0300
0300
0300
0300
ENDCHAR
STARTCHAR u
ENCODING 117
SWIDTH 889 0
DWIDTH 17 0
BBX 15 14 1 0
BITMAP
C006
C006
C006
C006
C006
C006
C006
C006
E00E
E00E
E00C
7C7C
3FF8
0FE0
ENDCHAR
STARTCHAR v
ENCODING 118
SWIDTH 989 0
DWIDTH 19 0
BBX 19 14 0 0
BITMAP
F001E0
7001C0
380380
380300
1C0700
0C0600
0E0E00
071C00
071800
03B800
01B000
01F000
00E000
00C000
ENDCHAR
STARTCHAR w
ENCODING 119
SWIDTH 1268 0
DWIDTH 24 0
BBX 24 14 0 0
BITMAP
E1C007
70E00E
30600C
38701C
1C3018
1C3838
0E1830
0E3C70
073C60
077EE0
03E6C0
03E7C0
01C380
00C300
ENDCHAR
STARTCHAR x
ENCODING 120
SWIDTH 1000 0
DWIDTH 19 0
BBX 18 14 0 0
BITMAP
7803C0
3C0700
0E0E00
071C00
03B800
01F000
00E000
01F000
03B800
071C00
0E0E00
1C0700
380380
F001C0
ENDCHAR
STARTCHAR y
ENCODING 121
SWIDTH 926 0
DWIDTH 18 0
BBX 17 14 0 0
BITMAP
F00380
380700
3C0E00
1C1C00
0E1C00
073800
03F000
01E000
01C000
00C000
00C000
00C000
00C000
00C000
ENDCHAR
STARTCHAR z
ENCODING 122
SWIDTH 802 0
DWIDTH 15 0
BBX 13 14 1 0
BITMAP
FFF8
FFF8
0078
00F0
01E0
03C0
0780
0F00
1E00
3C00
7800
F000
FFF8
FFF8
ENDCHAR
STARTCHAR braceleft
ENCODING 123
SWIDTH 337 0
DWIDTH 6 0
BBX 4 17 1 -1
BITMAP
30
60
60
60
60
60
60
60
C0
60
60
60
60
60
60
60
30
ENDCHAR
STARTCHAR bar
ENCODING 124
SWIDTH 297 0
DWIDTH 6 0
BBX 2 18 2 -2
BITMAP
C0
C0
C0
C0
C0
C0
C0
C0
C0
C0
C0
C0
C0
C0
C0
C0
C0
C0
ENDCHAR
STARTCHAR braceright
ENCODING 125
SWIDTH 337 0
DWIDTH 6 0
BBX 4 17 1 -1
BITMAP
E0
60
20
20
20
20
20
20
30
20
20
20
20
20
20
20
E0
ENDCHAR
STARTCHAR asciitilde
ENCODING 126
SWIDTH 691 0
DWIDTH 13 0
BBX 11 3 1 6
BITMAP
7820
FFE0
83C0
ENDCHAR
STARTCHAR nonbreakingspace
ENCODING 160
SWIDTH 294 0
DWIDTH 6 0
BBX 1 1 0 0
BITMAP
00
ENDCHAR
STARTCHAR exclamdown
ENCODING 161
SWIDTH 298 0
DWIDTH 6 0
BBX 2 14 2 0
BITMAP
C0
C0
00
00
C0
C0
C0
C0
C0
C0
C0
C0
C0
C0
ENDCHAR
STARTCHAR cent
ENCODING 162
SWIDTH 692 0
DWIDTH 13 0
BBX 11 14 1 0
BITMAP
0100
1FE0
7FE0
7900
E100
C100
C100
C100
C100
E100
7900
3FE0
1FE0
0100
ENDCHAR
STARTCHAR sterling
ENCODING 163
SWIDTH 709 0
DWIDTH 13 0
BBX 12 14 1 0
BITMAP
1FC0
3FC0
3800
7000
7000
7000
FE00
FE00
7000
7000
7000
7000
FFF0
FFF0
ENDCHAR
STARTCHAR yen
ENCODING 165
SWIDTH 787 0
DWIDTH 15 0
BBX 14 14 0 0
BITMAP
F01C
7018
3838
1C70
1C60
0EE0
06C0
3FF8
3FF8
0380
0380
3FF8
3FF8
0380
ENDCHAR
STARTCHAR brokenbar
ENCODING 166
SWIDTH 297 0
DWIDTH 6 0
BBX 2 18 2 -2
BITMAP
C0
C0
C0
C0
C0
C0
C0
C0
00
00
C0
C0
C0
C0
C0
C0
C0
C0
ENDCHAR
STARTCHAR section
ENCODING 167
SWIDTH 773 0
DWIDTH 15 0
BBX 13 18 1 -4
BITMAP
3FE0
7FE0
F000
C000
C000
E000
7FE0
7FF0
6030
6030
7FE0
3FF0
0030
0038
0038
0070
7FF0
7FE0
ENDCHAR
STARTCHAR dieresis
ENCODING 168
SWIDTH 393 0
DWIDTH 7 0
BBX 5 2 1 15
BITMAP
C8
C8
ENDCHAR
STARTCHAR copyright
ENCODING 169
SWIDTH 829 0
DWIDTH 16 0
BBX 14 14 1 0
BITMAP
0FC0
3060
6010
4788
8804
9004
9004
9004
8804
8784
4008
6010
1060
0FC0
ENDCHAR
STARTCHAR ordfeminine
ENCODING 170
SWIDTH 604 0
DWIDTH 11 0
BBX 10 8 1 6
BITMAP
0800
1C00
1600
3200
2300
6F00
5180
C0C0
ENDCHAR
STARTCHAR guillemotleft
ENCODING 171
SWIDTH 629 0
DWIDTH 12 0
BBX 10 7 1 4
BITMAP
0840
18C0
6300
C600
C600
3180
0840
ENDCHAR
STARTCHAR registered
ENCODING 174
SWIDTH 585 0
DWIDTH 11 0
BBX 9 9 1 5
BITMAP
1E00
6300
4100
9C80
A280
AC80
4280
6300
1E00
ENDCHAR
STARTCHAR macron
ENCODING 175
SWIDTH 362 0
DWIDTH 7 0
BBX 5 1 1 16
BITMAP
F8
ENDCHAR
STARTCHAR degree
ENCODING 176
SWIDTH 361 0
DWIDTH 7 0
BBX 5 5 1 9
BITMAP
70
88
88
88
70
ENDCHAR
STARTCHAR plusminus
ENCODING 177
SWIDTH 690 0
DWIDTH 13 0
BBX 11 14 1 -1
BITMAP
0400
0400
0400
0400
0400
FFE0
FFE0
0400
0400
0400
0400
0000
FFE0
FFE0
ENDCHAR
STARTCHAR twosuperior
ENCODING 178
SWIDTH 442 0
DWIDTH 8 0
BBX 7 7 1 7
BITMAP
FC
06
06
FC
80
80
FE
ENDCHAR
STARTCHAR threesuperior
ENCODING 179
SWIDTH 443 0
DWIDTH 8 0
BBX 7 7 1 7
BITMAP
FC
06
04
7C
06
06
FC
ENDCHAR
STARTCHAR acute
ENCODING 180
SWIDTH 362 0
DWIDTH 7 0
BBX 5 2 1 15
BITMAP
38
E0
ENDCHAR
STARTCHAR paragraph
ENCODING 182
SWIDTH 629 0
DWIDTH 12 0
BBX 10 16 1 -2
BITMAP
7FC0
FFC0
FCC0
FCC0
FCC0
FCC0
3CC0
0CC0
0CC0
0CC0
0CC0
0CC0
0CC0
0CC0
0CC0
0CC0
ENDCHAR
STARTCHAR periodcentered
ENCODING 183
SWIDTH 262 0
DWIDTH 5 0
BBX 3 2 1 6
BITMAP
E0
E0
ENDCHAR
STARTCHAR cedilla
ENCODING 184
SWIDTH 219 0
DWIDTH 4 0
BBX 2 3 1 -4
BITMAP
C0
C0
40
ENDCHAR
STARTCHAR onesuperior
ENCODING 185
SWIDTH 222 0
DWIDTH 4 0
BBX 2 7 1 7
BITMAP
C0
40
40
40
40
40
40
ENDCHAR
STARTCHAR ordmasculine
ENCODING 186
SWIDTH 592 0
DWIDTH 11 0
BBX 9 7 1 6
BITMAP
3F00
4180
C080
8080
8080
4180
7F00
ENDCHAR
STARTCHAR guillemotright
ENCODING 187
SWIDTH 629 0
DWIDTH 12 0
BBX 10 7 1 4
BITMAP
8800
C600
3100
18C0
18C0
6300
8400
ENDCHAR
STARTCHAR onequarter
ENCODING 188
SWIDTH 972 0
DWIDTH 18 0
BBX 17 16 1 -1
BITMAP
000C00
701800
103000
102000
104000
10C000
118000
130000
026300
066300
0C6300
186300
103F80
200300
600300
C00000
ENDCHAR
STARTCHAR onehalf
ENCODING 189
SWIDTH 948 0
DWIDTH 18 0
BBX 16 16 1 -1
BITMAP
000C
7018
1030
1020
1040
10C0
1180
1300
023F
0601
0C01
183F
1020
2060
607F
C000
ENDCHAR
STARTCHAR threequarters
ENCODING 190
SWIDTH 1029 0
DWIDTH 20 0
BBX 18 16 1 -1
BITMAP
000600
FC0C00
061800
061000
7C2000
066000
06C000
FC8000
013080
033080
063080
0C3080
081FC0
100080
300080
600000
ENDCHAR
STARTCHAR questiondown
ENCODING 191
SWIDTH 776 0
DWIDTH 15 0
BBX 13 14 1 0
BITMAP
0060
0070
0000
0000
0070
0070
3FE0
FFE0
E000
C000
C000
E000
FFF8
7FF8
ENDCHAR
STARTCHAR Agrave
ENCODING 192
SWIDTH 989 0
DWIDTH 19 0
BBX 19 17 0 0
BITMAP
038000
00E000
000000
00C000
00E000
01F000
01F000
03B800
071800
061C00
0E0E00
0CFE00
1DFF00
380300
300380
7001C0
E001E0
ENDCHAR
STARTCHAR Aacute
ENCODING 193
SWIDTH 989 0
DWIDTH 19 0
BBX 19 17 0 0
BITMAP
007000
00C000
000000
00C000
00E000
01F000
01F000
03B800
071800
061C00
0E0E00
0CFE00
1DFF00
380300
300380
7001C0
E001E0
ENDCHAR
STARTCHAR Acircumflex
ENCODING 194
SWIDTH 989 0
DWIDTH 19 0
BBX 19 18 0 0
BITMAP
00E000
00A000
013000
000000
00C000
00E000
01F000
01F000
03B800
071800
061C00
0E0E00
0CFE00
1DFF00
380300
300380
7001C0
E001E0
ENDCHAR
STARTCHAR Atilde
ENCODING 195
SWIDTH 989 0
DWIDTH 19 0
BBX 19 17 0 0
BITMAP
019000
017000
000000
00C000
00E000
01F000
01F000
03B800
071800
061C00
0E0E00
0CFE00
1DFF00
380300
300380
7001C0
E001E0
ENDCHAR
STARTCHAR Adieresis
ENCODING 196
SWIDTH 989 0
DWIDTH 19 0
BBX 19 17 0 0
BITMAP
013000
01B000
000000
00C000
00E000
01F000
01F000
03B800
071800
061C00
0E0E00
0CFE00
1DFF00
380300
300380
7001C0
E001E0
ENDCHAR
STARTCHAR Aring
ENCODING 197
SWIDTH 989 0
DWIDTH 19 0
BBX 19 19 0 0
BITMAP
00E000
011000
011000
00E000
000000
00C000
00E000
01F000
01F000
03B800
071800
061C00
0E0E00
0CFE00
1DFF00
380300
300380
7001C0
E001E0
ENDCHAR
STARTCHAR AE
ENCODING 198
SWIDTH 1345 0
DWIDTH 26 0
BBX 25 14 0 0
BITMAP
00FFFF80
01FFFF80
01870000
03870000
03070000
07070000
06077F00
0E077F00
1C070000
1CFF0000
39FF0000
30070000
7007FF80
E007FF80
ENDCHAR
STARTCHAR Ccedilla
ENCODING 199
SWIDTH 829 0
DWIDTH 16 0
BBX 14 18 1 -4
BITMAP
0FFC
3FFC
7C00
7000
E000
C000
C000
C000
C000
E000
7000
7C00
3FFC
0FFC
0000
0380
0100
0100
ENDCHAR
STARTCHAR Egrave
ENCODING 200
SWIDTH 759 0
DWIDTH 14 0
BBX 13 17 1 0
BITMAP
1C00
0700
0000
FFF8
FFF8
E000
E000
E000
E000
EFF0
EFF0
E000
E000
E000
E000
FFF8
FFF8
ENDCHAR
STARTCHAR Eacute
ENCODING 201
SWIDTH 759 0
DWIDTH 14 0
BBX 13 17 1 0
BITMAP
0380
0E00
0000
FFF8
FFF8
E000
E000
E000
E000
EFF0
EFF0
E000
E000
E000
E000
FFF8
FFF8
ENDCHAR
STARTCHAR Ecircumflex
ENCODING 202
SWIDTH 759 0
DWIDTH 14 0
BBX 13 18 1 0
BITMAP
0600
0D00
0980
0000
FFF8
FFF8
E000
E000
E000
E000
EFF0
EFF0
E000
E000
E000
E000
FFF8
FFF8
ENDCHAR
STARTCHAR Edieresis
ENCODING 203
SWIDTH 759 0
DWIDTH 14 0
BBX 13 17 1 0
BITMAP
0980
1980
0000
FFF8
FFF8
E000
E000
E000
E000
EFF0
EFF0
E000
E000
E000
E000
FFF8
FFF8
ENDCHAR
STARTCHAR Igrave
ENCODING 204
SWIDTH 267 0
DWIDTH 5 0
BBX 4 17 0 0
BITMAP
E0
70
00
70
70
70
70
70
70
70
70
70
70
70
70
70
70
ENDCHAR
STARTCHAR Iacute
ENCODING 205
SWIDTH 267 0
DWIDTH 5 0
BBX 5 17 1 0
BITMAP
78
E0
00
E0
E0
E0
E0
E0
E0
E0
E0
E0
E0
E0
E0
E0
E0
ENDCHAR
STARTCHAR Icircumflex
ENCODING 206
SWIDTH 267 0
DWIDTH 5 0
BBX 5 18 0 0
BITMAP
70
50
C8
00
70
70
70
70
70
70
70
70
70
70
70
70
70
70
ENDCHAR
STARTCHAR Idieresis
ENCODING 207
SWIDTH 267 0
DWIDTH 5 0
BBX 5 17 0 0
BITMAP
C8
D8
00
70
70
70
70
70
70
70
70
70
70
70
70
70
70
ENDCHAR
STARTCHAR Eth
ENCODING 208
SWIDTH 877 0
DWIDTH 17 0
BBX 16 14 0 0
BITMAP
7FF0
7FFC
703E
700E
7007
7007
FF87
FF87
7007
7006
700E
703C
7FF8
7FF0
ENDCHAR
STARTCHAR Ntilde
ENCODING 209
SWIDTH 873 0
DWIDTH 17 0
BBX 14 17 1 0
BITMAP
0640
09C0
0000
C00C
E00C
F00C
F80C
DC0C
CE0C
C70C
C38C
C1CC
C0EC
C07C
C03C
C01C
C00C
ENDCHAR
STARTCHAR Ograve
ENCODING 210
SWIDTH 968 0
DWIDTH 18 0
BBX 17 17 1 0
BITMAP
070000
01C000
000000
0FF800
3FFC00
7C1E00
700700
E00300
C00380
C00380
C00380
C00300
E00300
700700
7C1E00
3FFC00
0FF000
ENDCHAR
STARTCHAR Oacute
ENCODING 211
SWIDTH 968 0
DWIDTH 18 0
BBX 17 17 1 0
BITMAP
00E000
038000
000000
0FF800
3FFC00
7C1E00
700700
E00300
C00380
C00380
C00380
C00300
E00300
700700
7C1E00
3FFC00
0FF000
ENDCHAR
STARTCHAR Ocircumflex
ENCODING 212
SWIDTH 968 0
DWIDTH 18 0
BBX 17 18 1 0
BITMAP
018000
034000
026000
000000
0FF800
3FFC00
7C1E00
700700
E00300
C00380
C00380
C00380
C00300
E00300
700700
7C1E00
3FFC00
0FF000
ENDCHAR
STARTCHAR Otilde
ENCODING 213
SWIDTH 968 0
DWIDTH 18 0
BBX 17 17 1 0
BITMAP
032000
04C000
000000
0FF800
3FFC00
7C1E00
700700
E00300
C00380
C00380
C00380
C00300
E00300
700700
7C1E00
3FFC00
0FF000
ENDCHAR
STARTCHAR Odieresis
ENCODING 214
SWIDTH 968 0
DWIDTH 18 0
BBX 17 17 1 0
BITMAP
026000
066000
000000
0FF800
3FFC00
7C1E00
700700
E00300
C00380
C00380
C00380
C00300
E00300
700700
7C1E00
3FFC00
0FF000
ENDCHAR
STARTCHAR multiply
ENCODING 215
SWIDTH 690 0
DWIDTH 13 0
BBX 9 9 2 3
BITMAP
4100
C180
6300
3600
1C00
1C00
3600
6300
C180
ENDCHAR
STARTCHAR Oslash
ENCODING 216
SWIDTH 968 0
DWIDTH 18 0
BBX 17 16 1 -1
BITMAP
000200
0FFC00
3FFC00
7C1E00
701700
E02300
C04380
C08380
C18380
C30300
E20300
740700
7C1E00
3FFC00
3FF000
200000
ENDCHAR
STARTCHAR Ugrave
ENCODING 217
SWIDTH 889 0
DWIDTH 17 0
BBX 15 17 1 0
BITMAP
0F00
0380
0000
C006
C006
C006
C006
C006
C006
C006
C006
E00E
E00E
E00C
7C7C
3FF8
0FE0
ENDCHAR
STARTCHAR Uacute
ENCODING 218
SWIDTH 889 0
DWIDTH 17 0
BBX 15 17 1 0
BITMAP
01C0
0380
0000
C006
C006
C006
C006
C006
C006
C006
C006
E00E
E00E
E00C
7C7C
3FF8
0FE0
ENDCHAR
STARTCHAR Ucircumflex
ENCODING 219
SWIDTH 889 0
DWIDTH 17 0
BBX 15 18 1 0
BITMAP
0380
0280
04C0
0000
C006
C006
C006
C006
C006
C006
C006
C006
E00E
E00E
E00C
7C7C
3FF8
0FE0
ENDCHAR
STARTCHAR Udieresis
ENCODING 220
SWIDTH 889 0
DWIDTH 17 0
BBX 15 17 1 0
BITMAP
04C0
06C0
0000
C006
C006
C006
C006
C006
C006
C006
C006
E00E
E00E
E00C
7C7C
3FF8
0FE0
ENDCHAR
STARTCHAR Yacute
ENCODING 221
SWIDTH 926 0
DWIDTH 18 0
BBX 17 17 0 0
BITMAP
007000
01C000
000000
F00380
380700
3C0E00
1C1C00
0E1C00
073800
03F000
01E000
01C000
00C000
00C000
00C000
00C000
00C000
ENDCHAR
STARTCHAR Thorn
ENCODING 222
SWIDTH 843 0
DWIDTH 16 0
BBX 14 14 1 0
BITMAP
E000
E000
FFF0
FFF8
E03C
E00C
E00C
E00C
E00C
E01C
EFFC
EFF8
E000
E000
ENDCHAR
STARTCHAR germandbls
ENCODING 223
SWIDTH 1760 0
DWIDTH 33 0
BBX 32 14 1 0
BITMAP
3FFC1FFE
7FFC7FFE
F0007000
E0006000
E0006000
F0007000
7FFC3FFC
3FFC1FFE
000E0006
00060007
000E0007
001E000E
FFFC7FFE
FFF87FFC
ENDCHAR
STARTCHAR agrave
ENCODING 224
SWIDTH 989 0
DWIDTH 19 0
BBX 19 17 0 0
BITMAP
038000
00E000
000000
00C000
00E000
01F000
01F000
03B800
071800
061C00
0E0E00
0CFE00
1DFF00
380300
300380
7001C0
E001E0
ENDCHAR
STARTCHAR aacute
ENCODING 225
SWIDTH 989 0
DWIDTH 19 0
BBX 19 17 0 0
BITMAP
007000
00C000
000000
00C000
00E000
01F000
01F000
03B800
071800
061C00
0E0E00
0CFE00
1DFF00
380300
300380
7001C0
E001E0
ENDCHAR
STARTCHAR acircumflex
ENCODING 226
SWIDTH 989 0
DWIDTH 19 0
BBX 19 18 0 0
BITMAP
00E000
00A000
013000
000000
00C000
00E000
01F000
01F000
03B800
071800
061C00
0E0E00
0CFE00
1DFF00
380300
300380
7001C0
E001E0
ENDCHAR
STARTCHAR atilde
ENCODING 227
SWIDTH 989 0
DWIDTH 19 0
BBX 19 17 0 0
BITMAP
019000
017000
000000
00C000
00E000
01F000
01F000
03B800
071800
061C00
0E0E00
0CFE00
1DFF00
380300
300380
7001C0
E001E0
ENDCHAR
STARTCHAR adieresis
ENCODING 228
SWIDTH 989 0
DWIDTH 19 0
BBX 19 17 0 0
BITMAP
013000
01B000
000000
00C000
00E000
01F000
01F000
03B800
071800
061C00
0E0E00
0CFE00
1DFF00
380300
300380
7001C0
E001E0
ENDCHAR
STARTCHAR aring
ENCODING 229
SWIDTH 989 0
DWIDTH 19 0
BBX 19 19 0 0
BITMAP
00E000
011000
011000
00E000
000000
00C000
00E000
01F000
01F000
03B800
071800
061C00
0E0E00
0CFE00
1DFF00
380300
300380
7001C0
E001E0
ENDCHAR
STARTCHAR ae
ENCODING 230
SWIDTH 1345 0
DWIDTH 26 0
BBX 25 14 0 0
BITMAP
00FFFF80
01FFFF80
01870000
03870000
03070000
07070000
06077F00
0E077F00
1C070000
1CFF0000
39FF0000
30070000
7007FF80
E007FF80
ENDCHAR
STARTCHAR ccedilla
ENCODING 231
SWIDTH 829 0
DWIDTH 16 0
BBX 14 18 1 -4
BITMAP
0FFC
3FFC
7C00
7000
E000
C000
C000
C000
C000
E000
7000
7C00
3FFC
0FFC
0000
0380
0100
0100
ENDCHAR
STARTCHAR egrave
ENCODING 232
SWIDTH 759 0
DWIDTH 14 0
BBX 13 17 1 0
BITMAP
1C00
0700
0000
FFF8
FFF8
E000
E000
E000
E000
EFF0
EFF0
E000
E000
E000
E000
FFF8
FFF8
ENDCHAR
STARTCHAR eacute
ENCODING 233
SWIDTH 759 0
DWIDTH 14 0
BBX 13 17 1 0
BITMAP
0380
0E00
0000
FFF8
FFF8
E000
E000
E000
E000
EFF0
EFF0
E000
E000
E000
E000
FFF8
FFF8
ENDCHAR
STARTCHAR ecircumflex
ENCODING 234
SWIDTH 759 0
DWIDTH 14 0
BBX 13 18 1 0
BITMAP
0600
0D00
0980
0000
FFF8
FFF8
E000
E000
E000
E000
EFF0
EFF0
E000
E000
E000
E000
FFF8
FFF8
ENDCHAR
STARTCHAR edieresis
ENCODING 235
SWIDTH 759 0
DWIDTH 14 0
BBX 13 17 1 0
BITMAP
0980
1980
0000
FFF8
FFF8
E000
E000
E000
E000
EFF0
EFF0
E000
E000
E000
E000
FFF8
FFF8
ENDCHAR
STARTCHAR igrave
ENCODING 236
SWIDTH 267 0
DWIDTH 5 0
BBX 4 17 0 0
BITMAP
E0
70
00
70
70
70
70
70
70
70
70
70
70
70
70
70
70
ENDCHAR
STARTCHAR iacute
ENCODING 237
SWIDTH 267 0
DWIDTH 5 0
BBX 5 17 1 0
BITMAP
78
E0
00
E0
E0
E0
E0
E0
E0
E0
E0
E0
E0
E0
E0
E0
E0
ENDCHAR
STARTCHAR icircumflex
ENCODING 238
SWIDTH 267 0
DWIDTH 5 0
BBX 5 18 0 0
BITMAP
70
50
C8
00
70
70
70
70
70
70
70
70
70
70
70
70
70
70
ENDCHAR
STARTCHAR idieresis
ENCODING 239
SWIDTH 267 0
DWIDTH 5 0
BBX 5 17 0 0
BITMAP
C8
D8
00
70
70
70
70
70
70
70
70
70
70
70
70
70
70
ENDCHAR
STARTCHAR eth
ENCODING 240
SWIDTH 877 0
DWIDTH 17 0
BBX 16 14 0 0
BITMAP
7FF0
7FFC
703E
700E
7007
7007
FF87
FF87
7007
7006
700E
703C
7FF8
7FF0
ENDCHAR
STARTCHAR ntilde
ENCODING 241
SWIDTH 873 0
DWIDTH 17 0
BBX 14 17 1 0
BITMAP
0640
09C0
0000
C00C
E00C
F00C
F80C
DC0C
CE0C
C70C
C38C
C1CC
C0EC
C07C
C03C
C01C
C00C
ENDCHAR
STARTCHAR ograve
ENCODING 242
SWIDTH 968 0
DWIDTH 18 0
BBX 17 17 1 0
BITMAP
070000
01C000
000000
0FF800
3FFC00
7C1E00
700700
E00300
C00380
C00380
C00380
C00300
E00300
700700
7C1E00
3FFC00
0FF000
ENDCHAR
STARTCHAR oacute
ENCODING 243
SWIDTH 968 0
DWIDTH 18 0
BBX 17 17 1 0
BITMAP
00E000
038000
000000
0FF800
3FFC00
7C1E00
700700
E00300
C00380
C00380
C00380
C00300
E00300
700700
7C1E00
3FFC00
0FF000
ENDCHAR
STARTCHAR ocircumflex
ENCODING 244
SWIDTH 968 0
DWIDTH 18 0
BBX 17 18 1 0
BITMAP
018000
034000
026000
000000
0FF800
3FFC00
7C1E00
700700
E00300
C00380
C00380
C00380
C00300
E00300
700700
7C1E00
3FFC00
0FF000
ENDCHAR
STARTCHAR otilde
ENCODING 245
SWIDTH 968 0
DWIDTH 18 0
BBX 17 17 1 0
BITMAP
032000
04C000
000000
0FF800
3FFC00
7C1E00
700700
E00300
C00380
C00380
C00380
C00300
E00300
700700
7C1E00
3FFC00
0FF000
ENDCHAR
STARTCHAR odieresis
ENCODING 246
SWIDTH 968 0
DWIDTH 18 0
BBX 17 17 1 0
BITMAP
026000
066000
000000
0FF800
3FFC00
7C1E00
700700
E00300
C00380
C00380
C00380
C00300
E00300
700700
7C1E00
3FFC00
0FF000
ENDCHAR
STARTCHAR divide
ENCODING 247
SWIDTH 690 0
DWIDTH 13 0
BBX 11 12 1 1
BITMAP
0E00
0E00
0000
0000
0000
FFE0
FFE0
0000
0000
0000
0E00
0E00
ENDCHAR
STARTCHAR oslash
ENCODING 248
SWIDTH 968 0
DWIDTH 18 0
BBX 17 16 1 -1
BITMAP
000200
0FFC00
3FFC00
7C1E00
701700
E02300
C04380
C08380
C18380
C30300
E20300
740700
7C1E00
3FFC00
3FF000
200000
ENDCHAR
STARTCHAR ugrave
ENCODING 249
SWIDTH 889 0
DWIDTH 17 0
BBX 15 17 1 0
BITMAP
0F00
0380
0000
C006
C006
C006
C006
C006
C006
C006
C006
E00E
E00E
E00C
7C7C
3FF8
0FE0
ENDCHAR
STARTCHAR uacute
ENCODING 250
SWIDTH 889 0
DWIDTH 17 0
BBX 15 17 1 0
BITMAP
01C0
0380
0000
C006
C006
C006
C006
C006
C006
C006
C006
E00E
E00E
E00C
7C7C
3FF8
0FE0
ENDCHAR
STARTCHAR ucircumflex
ENCODING 251
SWIDTH 889 0
DWIDTH 17 0
BBX 15 18 1 0
BITMAP
0380
0280
04C0
0000
C006
C006
C006
C006
C006
C006
C006
C006
E00E
E00E
E00C
7C7C
3FF8
0FE0
ENDCHAR
STARTCHAR udieresis
ENCODING 252
SWIDTH 889 0
DWIDTH 17 0
BBX 15 17 1 0
BITMAP
04C0
06C0
0000
C006
C006
C006
C006
C006
C006
C006
C006
E00E
E00E
E00C
7C7C
3FF8
0FE0
ENDCHAR
STARTCHAR yacute
ENCODING 253
SWIDTH 926 0
DWIDTH 18 0
BBX 17 17 0 0
BITMAP
007000
01C000
000000
F00380
380700
3C0E00
1C1C00
0E1C00
073800
03F000
01E000
01C000
00C000
00C000
00C000
00C000
00C000
ENDCHAR
STARTCHAR thorn
ENCODING 254
SWIDTH 843 0
DWIDTH 16 0
BBX 14 14 1 0
BITMAP
E000
E000
FFF0
FFF8
E03C
E00C
E00C
E00C
E00C
E01C
EFFC
EFF8
E000
E000
ENDCHAR
STARTCHAR ydieresis
ENCODING 255
SWIDTH 926 0
DWIDTH 18 0
BBX 17 17 0 0
BITMAP
032000
033000
000000
F00380
380700
3C0E00
1C1C00
0E1C00
073800
03F000
01E000
01C000
00C000
00C000
00C000
00C000
00C000
ENDCHAR
STARTCHAR Amacron
ENCODING 256
SWIDTH 989 0
DWIDTH 19 0
BBX 19 17 0 0
BITMAP
01F000
000000
000000
00C000
00E000
01F000
01F000
03B800
071800
061C00
0E0E00
0CFE00
1DFF00
380300
300380
7001C0
E001E0
ENDCHAR
STARTCHAR amacron
ENCODING 257
SWIDTH 989 0
DWIDTH 19 0
BBX 19 17 0 0
BITMAP
01F000
000000
000000
00C000
00E000
01F000
01F000
03B800
071800
061C00
0E0E00
0CFE00
1DFF00
380300
300380
7001C0
E001E0
ENDCHAR
STARTCHAR Abreve
ENCODING 258
SWIDTH 989 0
DWIDTH 19 0
BBX 19 18 0 0
BITMAP
011000
013000
00E000
000000
00C000
00E000
01F000
01F000
03B800
071800
061C00
0E0E00
0CFE00
1DFF00
380300
300380
7001C0
E001E0
ENDCHAR
STARTCHAR abreve
ENCODING 259
SWIDTH 989 0
DWIDTH 19 0
BBX 19 18 0 0
BITMAP
011000
013000
00E000
000000
00C000
00E000
01F000
01F000
03B800
071800
061C00
0E0E00
0CFE00
1DFF00
380300
300380
7001C0
E001E0
ENDCHAR
STARTCHAR Aogonek
ENCODING 260
SWIDTH 989 0
DWIDTH 19 0
BBX 19 18 0 -4
BITMAP
00C000
00E000
01F000
01F000
03B800
071800
061C00
0E0E00
0CFE00
1DFF00
380300
300380
7001C0
E001C0
0000E0
000100
0001E0
0001E0
ENDCHAR
STARTCHAR aogonek
ENCODING 261
SWIDTH 989 0
DWIDTH 19 0
BBX 19 18 0 -4
BITMAP
00C000
00E000
01F000
01F000
03B800
071800
061C00
0E0E00
0CFE00
1DFF00
380300
300380
7001C0
E001C0
0000E0
000100
0001E0
0001E0
ENDCHAR
STARTCHAR Cacute
ENCODING 262
SWIDTH 829 0
DWIDTH 16 0
BBX 14 17 1 0
BITMAP
00E0
0380
0000
0FFC
3FFC
7C00
7000
E000
C000
C000
C000
C000
E000
7000
7C00
3FFC
0FFC
ENDCHAR
STARTCHAR cacute
ENCODING 263
SWIDTH 829 0
DWIDTH 16 0
BBX 14 17 1 0
BITMAP
00E0
0380
0000
0FFC
3FFC
7C00
7000
E000
C000
C000
C000
C000
E000
7000
7C00
3FFC
0FFC
ENDCHAR
STARTCHAR Cdotaccent
ENCODING 266
SWIDTH 829 0
DWIDTH 16 0
BBX 14 17 1 0
BITMAP
0180
0180
0000
0FFC
3FFC
7C00
7000
E000
C000
C000
C000
C000
E000
7000
7C00
3FFC
0FFC
ENDCHAR
STARTCHAR cdotaccent
ENCODING 267
SWIDTH 829 0
DWIDTH 16 0
BBX 14 17 1 0
BITMAP
0180
0180
0000
0FFC
3FFC
7C00
7000
E000
C000
C000
C000
C000
E000
7000
7C00
3FFC
0FFC
ENDCHAR
STARTCHAR Ccaron
ENCODING 268
SWIDTH 829 0
DWIDTH 16 0
BBX 14 18 1 0
BITMAP
0640
02C0
0180
0000
0FFC
3FFC
7C00
7000
E000
C000
C000
C000
C000
E000
7000
7C00
3FFC
0FFC
ENDCHAR
STARTCHAR ccaron
ENCODING 269
SWIDTH 829 0
DWIDTH 16 0
BBX 14 18 1 0
BITMAP
0640
02C0
0180
0000
0FFC
3FFC
7C00
7000
E000
C000
C000
C000
C000
E000
7000
7C00
3FFC
0FFC
ENDCHAR
STARTCHAR Dcaron
ENCODING 270
SWIDTH 879 0
DWIDTH 17 0
BBX 15 18 1 0
BITMAP
0880
0500
0700
0000
FFE0
FFF8
E07C
E01C
E00E
E00E
E00E
E00E
E00E
E00C
E01C
E078
FFF0
FFE0
ENDCHAR
STARTCHAR dcaron
ENCODING 271
SWIDTH 879 0
DWIDTH 17 0
BBX 15 18 1 0
BITMAP
0880
0500
0700
0000
FFE0
FFF8
E07C
E01C
E00E
E00E
E00E
E00E
E00E
E00C
E01C
E078
FFF0
FFE0
ENDCHAR
STARTCHAR Dcroat
ENCODING 272
SWIDTH 877 0
DWIDTH 17 0
BBX 16 14 0 0
BITMAP
7FF0
7FFC
703E
700E
7007
7007
FF87
FF87
7007
7006
700E
703C
7FF8
7FF0
ENDCHAR
STARTCHAR dcroat
ENCODING 273
SWIDTH 877 0
DWIDTH 17 0
BBX 16 14 0 0
BITMAP
7FF0
7FFC
703E
700E
7007
7007
FF87
FF87
7007
7006
700E
703C
7FF8
7FF0
ENDCHAR
STARTCHAR Emacron
ENCODING 274
SWIDTH 759 0
DWIDTH 14 0
BBX 13 17 1 0
BITMAP
0F80
0000
0000
FFF8
FFF8
E000
E000
E000
E000
EFF0
EFF0
E000
E000
E000
E000
FFF8
FFF8
ENDCHAR
STARTCHAR emacron
ENCODING 275
SWIDTH 759 0
DWIDTH 14 0
BBX 13 17 1 0
BITMAP
0F80
0000
0000
FFF8
FFF8
E000
E000
E000
E000
EFF0
EFF0
E000
E000
E000
E000
FFF8
FFF8
ENDCHAR
STARTCHAR Ebreve
ENCODING 276
SWIDTH 759 0
DWIDTH 14 0
BBX 13 18 1 0
BITMAP
0880
0980
0F00
0000
FFF8
FFF8
E000
E000
E000
E000
EFF0
EFF0
E000
E000
E000
E000
FFF8
FFF8
ENDCHAR
STARTCHAR ebreve
ENCODING 277
SWIDTH 759 0
DWIDTH 14 0
BBX 13 18 1 0
BITMAP
0880
0980
0F00
0000
FFF8
FFF8
E000
E000
E000
E000
EFF0
EFF0
E000
E000
E000
E000
FFF8
FFF8
ENDCHAR
STARTCHAR Edotaccent
ENCODING 278
SWIDTH 759 0
DWIDTH 14 0
BBX 13 17 1 0
BITMAP
0600
0600
0000
FFF8
FFF8
E000
E000
E000
E000
EFF0
EFF0
E000
E000
E000
E000
FFF8
FFF8
ENDCHAR
STARTCHAR edotaccent
ENCODING 279
SWIDTH 759 0
DWIDTH 14 0
BBX 13 17 1 0
BITMAP
0600
0600
0000
FFF8
FFF8
E000
E000
E000
E000
EFF0
EFF0
E000
E000
E000
E000
FFF8
FFF8
ENDCHAR
STARTCHAR Eogonek
ENCODING 280
SWIDTH 759 0
DWIDTH 14 0
BBX 13 18 1 -4
BITMAP
FFF8
FFF8
E000
E000
E000
E000
EFF0
EFF0
E000
E000
E000
E000
FFF8
FFF8
0010
0060
0078
0078
ENDCHAR
STARTCHAR eogonek
ENCODING 281
SWIDTH 759 0
DWIDTH 14 0
BBX 13 18 1 -4
BITMAP
FFF8
FFF8
E000
E000
E000
E000
EFF0
EFF0
E000
E000
E000
E000
FFF8
FFF8
0010
0060
0078
0078
ENDCHAR
STARTCHAR Ecaron
ENCODING 282
SWIDTH 759 0
DWIDTH 14 0
BBX 13 18 1 0
BITMAP
0980
0D00
0600
0000
FFF8
FFF8
E000
E000
E000
E000
EFF0
EFF0
E000
E000
E000
E000
FFF8
FFF8
ENDCHAR
STARTCHAR ecaron
ENCODING 283
SWIDTH 759 0
DWIDTH 14 0
BBX 13 18 1 0
BITMAP
0980
0D00
0600
0000
FFF8
FFF8
E000
E000
E000
E000
EFF0
EFF0
E000
E000
E000
E000
FFF8
FFF8
ENDCHAR
STARTCHAR Gbreve
ENCODING 286
SWIDTH 888 0
DWIDTH 17 0
BBX 15 18 1 0
BITMAP
0660
0240
03C0
0000
0FFC
3FFC
7C00
7000
E000
C000
C3FE
C3FE
C00E
E00E
700E
7C0E
3FFE
0FFE
ENDCHAR
STARTCHAR gbreve
ENCODING 287
SWIDTH 888 0
DWIDTH 17 0
BBX 15 18 1 0
BITMAP
0660
0240
03C0
0000
0FFC
3FFC
7C00
7000
E000
C000
C3FE
C3FE
C00E
E00E
700E
7C0E
3FFE
0FFE
ENDCHAR
STARTCHAR Gdotaccent
ENCODING 288
SWIDTH 888 0
DWIDTH 17 0
BBX 15 17 1 0
BITMAP
0180
0180
0000
0FFC
3FFC
7C00
7000
E000
C000
C3FE
C3FE
C00E
E00E
700E
7C0E
3FFE
0FFE
ENDCHAR
STARTCHAR gdotaccent
ENCODING 289
SWIDTH 888 0
DWIDTH 17 0
BBX 15 17 1 0
BITMAP
0180
0180
0000
0FFC
3FFC
7C00
7000
E000
C000
C3FE
C3FE
C00E
E00E
700E
7C0E
3FFE
0FFE
ENDCHAR
STARTCHAR Gcommaaccent
ENCODING 290
SWIDTH 888 0
DWIDTH 17 0
BBX 15 18 1 -4
BITMAP
0FFC
3FFC
7C00
7000
E000
C000
C3FE
C3FE
C00E
E00E
700E
7C0E
3FFE
0FFE
0000
0380
0100
0100
ENDCHAR
STARTCHAR gcommaaccent
ENCODING 291
SWIDTH 888 0
DWIDTH 17 0
BBX 15 18 1 -4
BITMAP
0FFC
3FFC
7C00
7000
E000
C000
C3FE
C3FE
C00E
E00E
700E
7C0E
3FFE
0FFE
0000
0380
0100
0100
ENDCHAR
STARTCHAR Hbar
ENCODING 294
SWIDTH 838 0
DWIDTH 16 0
BBX 14 14 1 0
BITMAP
E01C
E01C
EFFC
E01C
E01C
E01C
EFFC
EFFC
E01C
E01C
E01C
E01C
E01C
E01C
ENDCHAR
STARTCHAR hbar
ENCODING 295
SWIDTH 838 0
DWIDTH 16 0
BBX 14 14 1 0
BITMAP
E01C
E01C
EFFC
E01C
E01C
E01C
EFFC
EFFC
E01C
E01C
E01C
E01C
E01C
E01C
ENDCHAR
STARTCHAR uni012A
ENCODING 298
SWIDTH 267 0
DWIDTH 5 0
BBX 5 17 0 0
BITMAP
F8
00
00
70
70
70
70
70
70
70
70
70
70
70
70
70
70
ENDCHAR
STARTCHAR imacron
ENCODING 299
SWIDTH 267 0
DWIDTH 5 0
BBX 5 17 0 0
BITMAP
F8
00
00
70
70
70
70
70
70
70
70
70
70
70
70
70
70
ENDCHAR
STARTCHAR Ibreve
ENCODING 300
SWIDTH 267 0
DWIDTH 5 0
BBX 5 18 0 0
BITMAP
88
C8
70
00
70
70
70
70
70
70
70
70
70
70
70
70
70
70
ENDCHAR
STARTCHAR ibreve
ENCODING 301
SWIDTH 267 0
DWIDTH 5 0
BBX 5 18 0 0
BITMAP
88
C8
70
00
70
70
70
70
70
70
70
70
70
70
70
70
70
70
ENDCHAR
STARTCHAR Iogonek
ENCODING 302
SWIDTH 267 0
DWIDTH 5 0
BBX 4 18 0 -4
BITMAP
70
70
70
70
70
70
70
70
70
70
70
70
70
70
20
40
F0
70
ENDCHAR
STARTCHAR iogonek
ENCODING 303
SWIDTH 267 0
DWIDTH 5 0
BBX 4 18 0 -4
BITMAP
70
70
70
70
70
70
70
70
70
70
70
70
70
70
20
40
F0
70
ENDCHAR
STARTCHAR Idotaccent
ENCODING 304
SWIDTH 267 0
DWIDTH 5 0
BBX 3 17 1 0
BITMAP
40
40
00
E0
E0
E0
E0
E0
E0
E0
E0
E0
E0
E0
E0
E0
E0
ENDCHAR
STARTCHAR dotlessi
ENCODING 305
SWIDTH 267 0
DWIDTH 5 0
BBX 3 14 1 0
BITMAP
E0
E0
E0
E0
E0
E0
E0
E0
E0
E0
E0
E0
E0
E0
ENDCHAR
STARTCHAR IJ
ENCODING 306
SWIDTH 975 0
DWIDTH 19 0
BBX 17 14 1 0
BITMAP
E00380
E00380
E00380
E00380
E00380
E00380
E00380
E00380
E00380
E00300
E00700
E01F00
E7FE00
E7F800
ENDCHAR
STARTCHAR ij
ENCODING 307
SWIDTH 975 0
DWIDTH 19 0
BBX 17 14 1 0
BITMAP
E00380
E00380
E00380
E00380
E00380
E00380
E00380
E00380
E00380
E00300
E00700
E01F00
E7FE00
E7F800
ENDCHAR
STARTCHAR Kcommaaccent
ENCODING 310
SWIDTH 875 0
DWIDTH 17 0
BBX 15 18 1 -4
BITMAP
E01E
E078
E0F0
E1C0
E780
EF00
FC00
EE00
E700
E380
E1E0
E0F0
E038
E01E
0000
0380
0100
0100
ENDCHAR
STARTCHAR kcommaaccent
ENCODING 311
SWIDTH 875 0
DWIDTH 17 0
BBX 15 18 1 -4
BITMAP
E01E
E078
E0F0
E1C0
E780
EF00
FC00
EE00
E700
E380
E1E0
E0F0
E038
E01E
0000
0380
0100
0100
ENDCHAR
STARTCHAR Lacute
ENCODING 313
SWIDTH 707 0
DWIDTH 13 0
BBX 13 17 0 0
BITMAP
3800
E000
0000
7000
7000
7000
7000
7000
7000
7000
7000
7000
7000
7000
7000
7FF8
7FF8
ENDCHAR
STARTCHAR lacute
ENCODING 314
SWIDTH 707 0
DWIDTH 13 0
BBX 13 17 0 0
BITMAP
3800
E000
0000
7000
7000
7000
7000
7000
7000
7000
7000
7000
7000
7000
7000
7FF8
7FF8
ENDCHAR
STARTCHAR Lcommaaccent
ENCODING 315
SWIDTH 707 0
DWIDTH 13 0
BBX 12 18 1 -4
BITMAP
E000
E000
E000
E000
E000
E000
E000
E000
E000
E000
E000
E000
FFF0
FFF0
0000
0600
0600
0200
ENDCHAR
STARTCHAR lcommaaccent
ENCODING 316
SWIDTH 707 0
DWIDTH 13 0
BBX 12 18 1 -4
BITMAP
E000
E000
E000
E000
E000
E000
E000
E000
E000
E000
E000
E000
FFF0
FFF0
0000
0600
0600
0200
ENDCHAR
STARTCHAR Lcaron
ENCODING 317
SWIDTH 707 0
DWIDTH 13 0
BBX 12 14 1 0
BITMAP
E600
E600
E600
E600
E600
E000
E000
E000
E000
E000
E000
E000
FFF0
FFF0
ENDCHAR
STARTCHAR lcaron
ENCODING 318
SWIDTH 707 0
DWIDTH 13 0
BBX 12 14 1 0
BITMAP
E600
E600
E600
E600
E600
E000
E000
E000
E000
E000
E000
E000
FFF0
FFF0
ENDCHAR
STARTCHAR Ldot
ENCODING 319
SWIDTH 707 0
DWIDTH 13 0
BBX 12 14 1 0
BITMAP
E000
E000
E000
E000
E000
E000
E400
EC00
E000
E000
E000
E000
FFF0
FFF0
ENDCHAR
STARTCHAR ldot
ENCODING 320
SWIDTH 707 0
DWIDTH 13 0
BBX 12 14 1 0
BITMAP
E000
E000
E000
E000
E000
E000
E400
EC00
E000
E000
E000
E000
FFF0
FFF0
ENDCHAR
STARTCHAR Lslash
ENCODING 321
SWIDTH 707 0
DWIDTH 13 0
BBX 12 14 1 0
BITMAP
E000
E000
E000
E000
E100
EF00
FE00
F800
E000
E000
E000
E000
FFF0
FFF0
ENDCHAR
STARTCHAR lslash
ENCODING 322
SWIDTH 707 0
DWIDTH 13 0
BBX 12 14 1 0
BITMAP
E000
E000
E000
E000
E100
EF00
FE00
F800
E000
E000
E000
E000
FFF0
FFF0
ENDCHAR
STARTCHAR Nacute
ENCODING 323
SWIDTH 873 0
DWIDTH 17 0
BBX 14 17 1 0
BITMAP
01C0
0700
0000
C00C
E00C
F00C
F80C
DC0C
CE0C
C70C
C38C
C1CC
C0EC
C07C
C03C
C01C
C00C
ENDCHAR
STARTCHAR nacute
ENCODING 324
SWIDTH 873 0
DWIDTH 17 0
BBX 14 17 1 0
BITMAP
01C0
0700
0000
C00C
E00C
F00C
F80C
DC0C
CE0C
C70C
C38C
C1CC
C0EC
C07C
C03C
C01C
C00C
ENDCHAR
STARTCHAR Ncommaaccent
ENCODING 325
SWIDTH 873 0
DWIDTH 17 0
BBX 14 18 1 -4
BITMAP
C00C
E00C
F00C
F80C
DC0C
CE0C
C70C
C38C
C1CC
C0EC
C07C
C03C
C01C
C00C
0000
0380
0100
0100
ENDCHAR
STARTCHAR ncommaaccent
ENCODING 326
SWIDTH 873 0
DWIDTH 17 0
BBX 14 18 1 -4
BITMAP
C00C
E00C
F00C
F80C
DC0C
CE0C
C70C
C38C
C1CC
C0EC
C07C
C03C
C01C
C00C
0000
0380
0100
0100
ENDCHAR
STARTCHAR Ncaron
ENCODING 327
SWIDTH 873 0
DWIDTH 17 0
BBX 14 18 1 0
BITMAP
0440
0680
0300
0000
C00C
E00C
F00C
F80C
DC0C
CE0C
C70C
C38C
C1CC
C0EC
C07C
C03C
C01C
C00C
ENDCHAR
STARTCHAR ncaron
ENCODING 328
SWIDTH 873 0
DWIDTH 17 0
BBX 14 18 1 0
BITMAP
0440
0680
0300
0000
C00C
E00C
F00C
F80C
DC0C
CE0C
C70C
C38C
C1CC
C0EC
C07C
C03C
C01C
C00C
ENDCHAR
STARTCHAR Eng
ENCODING 330
SWIDTH 873 0
DWIDTH 17 0
BBX 14 18 1 -4
BITMAP
C00C
E00C
F00C
F80C
DC0C
CE0C
C70C
C38C
C1CC
C0EC
C07C
C03C
C01C
C00C
001C
007C
03F8
03E0
ENDCHAR
STARTCHAR eng
ENCODING 331
SWIDTH 873 0
DWIDTH 17 0
BBX 14 18 1 -4
BITMAP
C00C
E00C
F00C
F80C
DC0C
CE0C
C70C
C38C
C1CC
C0EC
C07C
C03C
C01C
C00C
001C
007C
03F8
03E0
ENDCHAR
STARTCHAR Omacron
ENCODING 332
SWIDTH 968 0
DWIDTH 18 0
BBX 17 17 1 0
BITMAP
03E000
000000
000000
0FF800
3FFC00
7C1E00
700700
E00300
C00380
C00380
C00380
C00300
E00300
700700
7C1E00
3FFC00
0FF000
ENDCHAR
STARTCHAR omacron
ENCODING 333
SWIDTH 968 0
DWIDTH 18 0
BBX 17 17 1 0
BITMAP
03E000
000000
000000
0FF800
3FFC00
7C1E00
700700
E00300
C00380
C00380
C00380
C00300
E00300
700700
7C1E00
3FFC00
0FF000
ENDCHAR
STARTCHAR Obreve
ENCODING 334
SWIDTH 968 0
DWIDTH 18 0
BBX 17 18 1 0
BITMAP
026000
026000
03C000
000000
0FF800
3FFC00
7C1E00
700700
E00300
C00380
C00380
C00380
C00300
E00300
700700
7C1E00
3FFC00
0FF000
ENDCHAR
STARTCHAR obreve
ENCODING 335
SWIDTH 968 0
DWIDTH 18 0
BBX 17 18 1 0
BITMAP
026000
026000
03C000
000000
0FF800
3FFC00
7C1E00
700700
E00300
C00380
C00380
C00380
C00300
E00300
700700
7C1E00
3FFC00
0FF000
ENDCHAR
STARTCHAR Ohungarumlaut
ENCODING 336
SWIDTH 968 0
DWIDTH 18 0
BBX 17 17 1 0
BITMAP
01B000
024000
000000
0FF800
3FFC00
7C1E00
700700
E00300
C00380
C00380
C00380
C00300
E00300
700700
7C1E00
3FFC00
0FF000
ENDCHAR
STARTCHAR ohungarumlaut
ENCODING 337
SWIDTH 968 0
DWIDTH 18 0
BBX 17 17 1 0
BITMAP
01B000
024000
000000
0FF800
3FFC00
7C1E00
700700
E00300
C00380
C00380
C00380
C00300
E00300
700700
7C1E00
3FFC00
0FF000
ENDCHAR
STARTCHAR OE
ENCODING 338
SWIDTH 1304 0
DWIDTH 25 0
BBX 23 14 1 0
BITMAP
0FFFFE
3FFFFE
7C1C00
701C00
E01C00
C01C00
C01DFC
C01DFC
C01C00
E01C00
701C00
7C1C00
3FFFFE
0FFFFE
ENDCHAR
STARTCHAR oe
ENCODING 339
SWIDTH 1304 0
DWIDTH 25 0
BBX 23 14 1 0
BITMAP
0FFFFE
3FFFFE
7C1C00
701C00
E01C00
C01C00
C01DFC
C01DFC
C01C00
E01C00
701C00
7C1C00
3FFFFE
0FFFFE
ENDCHAR
STARTCHAR Racute
ENCODING 340
SWIDTH 921 0
DWIDTH 18 0
BBX 16 17 1 0
BITMAP
01C0
0700
0000
FFF8
FFFC
E01E
E00E
E006
E006
E006
E00E
EFFC
EFF8
E038
E01C
E00E
E007
ENDCHAR
STARTCHAR racute
ENCODING 341
SWIDTH 921 0
DWIDTH 18 0
BBX 16 17 1 0
BITMAP
01C0
0700
0000
FFF8
FFFC
E01E
E00E
E006
E006
E006
E00E
EFFC
EFF8
E038
E01C
E00E
E007
ENDCHAR
STARTCHAR Rcommaaccent
ENCODING 342
SWIDTH 921 0
DWIDTH 18 0
BBX 16 18 1 -4
BITMAP
FFF8
FFFC
E01E
E00E
E006
E006
E006
E00E
EFFC
EFF8
E038
E01C
E00E
E007
0000
0380
0100
0100
ENDCHAR
STARTCHAR rcommaaccent
ENCODING 343
SWIDTH 921 0
DWIDTH 18 0
BBX 16 18 1 -4
BITMAP
FFF8
FFFC
E01E
E00E
E006
E006
E006
E00E
EFFC
EFF8
E038
E01C
E00E
E007
0000
0380
0100
0100
ENDCHAR
STARTCHAR Rcaron
ENCODING 344
SWIDTH 921 0
DWIDTH 18 0
BBX 16 18 1 0
BITMAP
0CC0
0580
0300
0000
FFF8
FFFC
E01E
E00E
E006
E006
E006
E00E
EFFC
EFF8
E038
E01C
E00E
E007
ENDCHAR
STARTCHAR rcaron
ENCODING 345
SWIDTH 921 0
DWIDTH 18 0
BBX 16 18 1 0
BITMAP
0CC0
0580
0300
0000
FFF8
FFFC
E01E
E00E
E006
E006
E006
E00E
EFFC
EFF8
E038
E01C
E00E
E007
ENDCHAR
STARTCHAR Sacute
ENCODING 346
SWIDTH 880 0
DWIDTH 17 0
BBX 15 17 1 0
BITMAP
01C0
0700
0000
3FFC
7FFC
F000
E000
E000
F000
7FFC
3FFC
000E
0006
000E
001E
FFFC
FFF8
ENDCHAR
STARTCHAR sacute
ENCODING 347
SWIDTH 880 0
DWIDTH 17 0
BBX 15 17 1 0
BITMAP
01C0
0700
0000
3FFC
7FFC
F000
E000
E000
F000
7FFC
3FFC
000E
0006
000E
001E
FFFC
FFF8
ENDCHAR
STARTCHAR Scedilla
ENCODING 350
SWIDTH 880 0
DWIDTH 17 0
BBX 15 18 1 -4
BITMAP
3FFC
7FFC
F000
E000
E000
F000
7FFC
3FFC
000E
0006
000E
001E
FFFC
FFF8
0000
0380
0100
0100
ENDCHAR
STARTCHAR scedilla
ENCODING 351
SWIDTH 880 0
DWIDTH 17 0
BBX 15 18 1 -4
BITMAP
3FFC
7FFC
F000
E000
E000
F000
7FFC
3FFC
000E
0006
000E
001E
FFFC
FFF8
0000
0380
0100
0100
ENDCHAR
STARTCHAR Scaron
ENCODING 352
SWIDTH 880 0
DWIDTH 17 0
BBX 15 18 1 0
BITMAP
0440
0280
0380
0000
3FFC
7FFC
F000
E000
E000
F000
7FFC
3FFC
000E
0006
000E
001E
FFFC
FFF8
ENDCHAR
STARTCHAR scaron
ENCODING 353
SWIDTH 880 0
DWIDTH 17 0
BBX 15 18 1 0
BITMAP
0440
0280
0380
0000
3FFC
7FFC
F000
E000
E000
F000
7FFC
3FFC
000E
0006
000E
001E
FFFC
FFF8
ENDCHAR
STARTCHAR Tcommaaccent
ENCODING 354
SWIDTH 720 0
DWIDTH 14 0
BBX 13 18 0 -4
BITMAP
FFF8
FFF8
0300
0300
0300
0300
0300
0300
0300
0300
0300
0300
0300
0300
0000
0300
0200
0200
ENDCHAR
STARTCHAR tcommaaccent
ENCODING 355
SWIDTH 720 0
DWIDTH 14 0
BBX 13 18 0 -4
BITMAP
FFF8
FFF8
0300
0300
0300
0300
0300
0300
0300
0300
0300
0300
0300
0300
0000
0300
0200
0200
ENDCHAR
STARTCHAR Tcaron
ENCODING 356
SWIDTH 720 0
DWIDTH 14 0
BBX 13 18 0 0
BITMAP
0C80
0580
0300
0000
FFF8
FFF8
0300
0300
0300
0300
0300
0300
0300
0300
0300
0300
0300
0300
ENDCHAR
STARTCHAR tcaron
ENCODING 357
SWIDTH 720 0
DWIDTH 14 0
BBX 13 18 0 0
BITMAP
0C80
0580
0300
0000
FFF8
FFF8
0300
0300
0300
0300
0300
0300
0300
0300
0300
0300
0300
0300
ENDCHAR
STARTCHAR Tbar
ENCODING 358
SWIDTH 720 0
DWIDTH 14 0
BBX 13 14 0 0
BITMAP
FFF8
FFF8
0300
0300
0300
0300
0300
1FC0
1FC0
0300
0300
0300
0300
0300
ENDCHAR
STARTCHAR tbar
ENCODING 359
SWIDTH 720 0
DWIDTH 14 0
BBX 13 14 0 0
BITMAP
FFF8
FFF8
0300
0300
0300
0300
0300
1FC0
1FC0
0300
0300
0300
0300
0300
ENDCHAR
STARTCHAR Utilde
ENCODING 360
SWIDTH 889 0
DWIDTH 17 0
BBX 15 17 1 0
BITMAP
0640
05C0
0000
C006
C006
C006
C006
C006
C006
C006
C006
E00E
E00E
E00C
7C7C
3FF8
0FE0
ENDCHAR
STARTCHAR utilde
ENCODING 361
SWIDTH 889 0
DWIDTH 17 0
BBX 15 17 1 0
BITMAP
0640
05C0
0000
C006
C006
C006
C006
C006
C006
C006
C006
E00E
E00E
E00C
7C7C
3FF8
0FE0
ENDCHAR
STARTCHAR Umacron
ENCODING 362
SWIDTH 889 0
DWIDTH 17 0
BBX 15 17 1 0
BITMAP
07C0
0000
0000
C006
C006
C006
C006
C006
C006
C006
C006
E00E
E00E
E00C
7C7C
3FF8
0FE0
ENDCHAR
STARTCHAR umacron
ENCODING 363
SWIDTH 889 0
DWIDTH 17 0
BBX 15 17 1 0
BITMAP
07C0
0000
0000
C006
C006
C006
C006
C006
C006
C006
C006
E00E
E00E
E00C
7C7C
3FF8
0FE0
ENDCHAR
STARTCHAR Ubreve
ENCODING 364
SWIDTH 889 0
DWIDTH 17 0
BBX 15 18 1 0
BITMAP
0440
0440
0380
0000
C006
C006
C006
C006
C006
C006
C006
C006
E00E
E00E
E00C
7C7C
3FF8
0FE0
ENDCHAR
STARTCHAR ubreve
ENCODING 365
SWIDTH 889 0
DWIDTH 17 0
BBX 15 18 1 0
BITMAP
0440
0440
0380
0000
C006
C006
C006
C006
C006
C006
C006
C006
E00E
E00E
E00C
7C7C
3FF8
0FE0
ENDCHAR
STARTCHAR Uring
ENCODING 366
SWIDTH 889 0
DWIDTH 17 0
BBX 15 19 1 0
BITMAP
0380
0440
0440
0380
0000
C006
C006
C006
C006
C006
C006
C006
C006
E00E
E00E
E00C
7C7C
3FF8
0FE0
ENDCHAR
STARTCHAR uring
ENCODING 367
SWIDTH 889 0
DWIDTH 17 0
BBX 15 19 1 0
BITMAP
0380
0440
0440
0380
0000
C006
C006
C006
C006
C006
C006
C006
C006
E00E
E00E
E00C
7C7C
3FF8
0FE0
ENDCHAR
STARTCHAR Uhungarumlaut
ENCODING 368
SWIDTH 889 0
DWIDTH 17 0
BBX 15 17 1 0
BITMAP
0360
06C0
0000
C006
C006
C006
C006
C006
C006
C006
C006
E00E
E00E
E00C
7C7C
3FF8
0FE0
ENDCHAR
STARTCHAR uhungarumlaut
ENCODING 369
SWIDTH 889 0
DWIDTH 17 0
BBX 15 17 1 0
BITMAP
0360
06C0
0000
C006
C006
C006
C006
C006
C006
C006
C006
E00E
E00E
E00C
7C7C
3FF8
0FE0
ENDCHAR
STARTCHAR Uogonek
ENCODING 370
SWIDTH 889 0
DWIDTH 17 0
BBX 15 18 1 -4
BITMAP
C006
C006
C006
C006
C006
C006
C006
C006
E00E
E00E
E00C
7C7C
3FF8
0FE0
0100
0200
0380
0380
ENDCHAR
STARTCHAR uogonek
ENCODING 371
SWIDTH 889 0
DWIDTH 17 0
BBX 15 18 1 -4
BITMAP
C006
C006
C006
C006
C006
C006
C006
C006
E00E
E00E
E00C
7C7C
3FF8
0FE0
0100
0200
0380
0380
ENDCHAR
STARTCHAR Wcircumflex
ENCODING 372
SWIDTH 1268 0
DWIDTH 24 0
BBX 24 18 0 0
BITMAP
001800
003C00
006600
000000
E1C007
70E00E
30600C
38701C
1C3018
1C3838
0E1830
0E3C70
073C60
077EE0
03E6C0
03E7C0
01C380
00C300
ENDCHAR
STARTCHAR wcircumflex
ENCODING 373
SWIDTH 1268 0
DWIDTH 24 0
BBX 24 18 0 0
BITMAP
001800
003C00
006600
000000
E1C007
70E00E
30600C
38701C
1C3018
1C3838
0E1830
0E3C70
073C60
077EE0
03E6C0
03E7C0
01C380
00C300
ENDCHAR
STARTCHAR Ycircumflex
ENCODING 374
SWIDTH 926 0
DWIDTH 18 0
BBX 17 18 0 0
BITMAP
00C000
016000
032000
000000
F00380
380700
3C0E00
1C1C00
0E1C00
073800
03F000
01E000
01C000
00C000
00C000
00C000
00C000
00C000
ENDCHAR
STARTCHAR ycircumflex
ENCODING 375
SWIDTH 926 0
DWIDTH 18 0
BBX 17 18 0 0
BITMAP
00C000
016000
032000
000000
F00380
380700
3C0E00
1C1C00
0E1C00
073800
03F000
01E000
01C000
00C000
00C000
00C000
00C000
00C000
ENDCHAR
STARTCHAR Ydieresis
ENCODING 376
SWIDTH 926 0
DWIDTH 18 0
BBX 17 17 0 0
BITMAP
032000
033000
000000
F00380
380700
3C0E00
1C1C00
0E1C00
073800
03F000
01E000
01C000
00C000
00C000
00C000
00C000
00C000
ENDCHAR
STARTCHAR Zacute
ENCODING 377
SWIDTH 802 0
DWIDTH 15 0
BBX 13 17 1 0
BITMAP
01C0
0700
0000
FFF8
FFF8
0078
00F0
01E0
03C0
0780
0F00
1E00
3C00
7800
F000
FFF8
FFF8
ENDCHAR
STARTCHAR zacute
ENCODING 378
SWIDTH 802 0
DWIDTH 15 0
BBX 13 17 1 0
BITMAP
01C0
0700
0000
FFF8
FFF8
0078
00F0
01E0
03C0
0780
0F00
1E00
3C00
7800
F000
FFF8
FFF8
ENDCHAR
STARTCHAR Zdotaccent
ENCODING 379
SWIDTH 802 0
DWIDTH 15 0
BBX 13 17 1 0
BITMAP
0200
0300
0000
FFF8
FFF8
0078
00F0
01E0
03C0
0780
0F00
1E00
3C00
7800
F000
FFF8
FFF8
ENDCHAR
STARTCHAR zdotaccent
ENCODING 380
SWIDTH 802 0
DWIDTH 15 0
BBX 13 17 1 0
BITMAP
0200
0300
0000
FFF8
FFF8
0078
00F0
01E0
03C0
0780
0F00
1E00
3C00
7800
F000
FFF8
FFF8
ENDCHAR
STARTCHAR Zcaron
ENCODING 381
SWIDTH 802 0
DWIDTH 15 0
BBX 13 18 1 0
BITMAP
0880
0500
0700
0000
FFF8
FFF8
0078
00F0
01E0
03C0
0780
0F00
1E00
3C00
7800
F000
FFF8
FFF8
ENDCHAR
STARTCHAR zcaron
ENCODING 382
SWIDTH 802 0
DWIDTH 15 0
BBX 13 18 1 0
BITMAP
0880
0500
0700
0000
FFF8
FFF8
0078
00F0
01E0
03C0
0780
0F00
1E00
3C00
7800
F000
FFF8
FFF8
ENDCHAR
STARTCHAR Scommaaccent
ENCODING 536
SWIDTH 880 0
DWIDTH 17 0
BBX 15 18 1 -4
BITMAP
3FFC
7FFC
F000
E000
E000
F000
7FFC
3FFC
000E
0006
000E
001E
FFFC
FFF8
0000
0380
0100
0100
ENDCHAR
STARTCHAR scommaaccent
ENCODING 537
SWIDTH 880 0
DWIDTH 17 0
BBX 15 18 1 -4
BITMAP
3FFC
7FFC
F000
E000
E000
F000
7FFC
3FFC
000E
0006
000E
001E
FFFC
FFF8
0000
0380
0100
0100
ENDCHAR
STARTCHAR uni021A
ENCODING 538
SWIDTH 720 0
DWIDTH 14 0
BBX 13 18 0 -4
BITMAP
FFF8
FFF8
0300
0300
0300
0300
0300
0300
0300
0300
0300
0300
0300
0300
0000
0300
0200
0200
ENDCHAR
STARTCHAR uni021B
ENCODING 539
SWIDTH 720 0
DWIDTH 14 0
BBX 13 18 0 -4
BITMAP
FFF8
FFF8
0300
0300
0300
0300
0300
0300
0300
0300
0300
0300
0300
0300
0000
0300
0200
0200
ENDCHAR
STARTCHAR circumflex
ENCODING 710
SWIDTH 379 0
DWIDTH 7 0
BBX 5 3 1 15
BITMAP
70
50
C8
ENDCHAR
STARTCHAR caron
ENCODING 711
SWIDTH 379 0
DWIDTH 7 0
BBX 5 3 1 15
BITMAP
88
50
70
ENDCHAR
STARTCHAR breve
ENCODING 728
SWIDTH 382 0
DWIDTH 7 0
BBX 5 3 1 15
BITMAP
88
C8
70
ENDCHAR
STARTCHAR dotaccent
ENCODING 729
SWIDTH 208 0
DWIDTH 4 0
BBX 2 2 1 15
BITMAP
C0
C0
ENDCHAR
STARTCHAR ring
ENCODING 730
SWIDTH 362 0
DWIDTH 7 0
BBX 5 4 1 15
BITMAP
70
88
88
70
ENDCHAR
STARTCHAR ogonek
ENCODING 731
SWIDTH 234 0
DWIDTH 4 0
BBX 4 4 0 -4
BITMAP
30
40
F0
70
ENDCHAR
STARTCHAR tilde
ENCODING 732
SWIDTH 362 0
DWIDTH 7 0
BBX 5 2 1 15
BITMAP
C8
B8
ENDCHAR
STARTCHAR hungarumlaut
ENCODING 733
SWIDTH 399 0
DWIDTH 8 0
BBX 6 2 1 15
BITMAP
6C
90
ENDCHAR
STARTCHAR commaaccent
ENCODING 806
SWIDTH 219 0
DWIDTH 4 0
BBX 2 3 1 -4
BITMAP
C0
C0
40
ENDCHAR
STARTCHAR Wgrave
ENCODING 7808
SWIDTH 1268 0
DWIDTH 24 0
BBX 24 17 0 0
BITMAP
007000
001C00
000000
E1C007
70E00E
30600C
38701C
1C3018
1C3838
0E1830
0E3C70
073C60
077EE0
03E6C0
03E7C0
01C380
00C300
ENDCHAR
STARTCHAR wgrave
ENCODING 7809
SWIDTH 1268 0
DWIDTH 24 0
BBX 24 17 0 0
BITMAP
007000
001C00
000000
E1C007
70E00E
30600C
38701C
1C3018
1C3838
0E1830
0E3C70
073C60
077EE0
03E6C0
03E7C0
01C380
00C300
ENDCHAR
STARTCHAR Wacute
ENCODING 7810
SWIDTH 1268 0
DWIDTH 24 0
BBX 24 17 0 0
BITMAP
000E00
003800
000000
E1C007
70E00E
30600C
38701C
1C3018
1C3838
0E1830
0E3C70
073C60
077EE0
03E6C0
03E7C0
01C380
00C300
ENDCHAR
STARTCHAR wacute
ENCODING 7811
SWIDTH 1268 0
DWIDTH 24 0
BBX 24 17 0 0
BITMAP
000E00
003800
000000
E1C007
70E00E
30600C
38701C
1C3018
1C3838
0E1830
0E3C70
073C60
077EE0
03E6C0
03E7C0
01C380
00C300
ENDCHAR
STARTCHAR Wdieresis
ENCODING 7812
SWIDTH 1268 0
DWIDTH 24 0
BBX 24 17 0 0
BITMAP
006600
006600
000000
E1C007
70E00E
30600C
38701C
1C3018
1C3838
0E1830
0E3C70
073C60
077EE0
03E6C0
03E7C0
01C380
00C300
ENDCHAR
STARTCHAR wdieresis
ENCODING 7813
SWIDTH 1268 0
DWIDTH 24 0
BBX 24 17 0 0
BITMAP
006600
006600
000000
E1C007
70E00E
30600C
38701C
1C3018
1C3838
0E1830
0E3C70
073C60
077EE0
03E6C0
03E7C0
01C380
00C300
ENDCHAR
STARTCHAR Ygrave
ENCODING 7922
SWIDTH 926 0
DWIDTH 18 0
BBX 17 17 0 0
BITMAP
038000
00E000
000000
F00380
380700
3C0E00
1C1C00
0E1C00
073800
03F000
01E000
01C000
00C000
00C000
00C000
00C000
00C000
ENDCHAR
STARTCHAR ygrave
ENCODING 7923
SWIDTH 926 0
DWIDTH 18 0
BBX 17 17 0 0
BITMAP
038000
00E000
000000
F00380
380700
3C0E00
1C1C00
0E1C00
073800
03F000
01E000
01C000
00C000
00C000
00C000
00C000
00C000
ENDCHAR
STARTCHAR endash
ENCODING 8211
SWIDTH 590 0
DWIDTH 11 0
BBX 10 2 1 6
BITMAP
FFC0
FFC0
ENDCHAR
STARTCHAR emdash
ENCODING 8212
SWIDTH 866 0
DWIDTH 16 0
BBX 15 2 1 6
BITMAP
FFFE
FFFE
ENDCHAR
STARTCHAR quoteleft
ENCODING 8216
SWIDTH 259 0
DWIDTH 5 0
BBX 3 5 1 9
BITMAP
E0
E0
60
60
60
ENDCHAR
STARTCHAR quoteright
ENCODING 8217
SWIDTH 259 0
DWIDTH 5 0
BBX 3 5 1 9
BITMAP
E0
C0
C0
C0
C0
ENDCHAR
STARTCHAR quotesinglbase
ENCODING 8218
SWIDTH 259 0
DWIDTH 5 0
BBX 3 5 1 -2
BITMAP
E0
C0
C0
C0
C0
ENDCHAR
STARTCHAR quotedblleft
ENCODING 8220
SWIDTH 462 0
DWIDTH 9 0
BBX 7 5 1 9
BITMAP
EE
E6
66
66
66
ENDCHAR
STARTCHAR quotedblright
ENCODING 8221
SWIDTH 462 0
DWIDTH 9 0
BBX 7 5 1 9
BITMAP
EE
CC
CC
CC
CC
ENDCHAR
STARTCHAR quotedblbase
ENCODING 8222
SWIDTH 462 0
DWIDTH 9 0
BBX 7 5 1 -2
BITMAP
EE
CC
CC
CC
CC
ENDCHAR
STARTCHAR dagger
ENCODING 8224
SWIDTH 466 0
DWIDTH 9 0
BBX 7 14 1 0
BITMAP
10
10
10
FE
10
10
10
10
10
10
10
10
10
10
ENDCHAR
STARTCHAR daggerdbl
ENCODING 8225
SWIDTH 466 0
DWIDTH 9 0
BBX 7 14 1 0
BITMAP
10
10
10
FE
10
10
10
10
10
10
FE
10
10
10
ENDCHAR
STARTCHAR bullet
ENCODING 8226
SWIDTH 413 0
DWIDTH 8 0
BBX 6 6 1 4
BITMAP
70
78
FC
FC
78
70
ENDCHAR
STARTCHAR ellipsis
ENCODING 8230
SWIDTH 1310 0
DWIDTH 25 0
BBX 23 2 1 0
BITMAP
E0380E
E0300C
ENDCHAR
STARTCHAR perthousand
ENCODING 8240
SWIDTH 1314 0
DWIDTH 25 0
BBX 23 16 1 -1
BITMAP
000C00
780800
C41000
823000
826000
82C000
C48000
398000
03783C
06C446
048282
088282
188282
30C446
603838
C00000
ENDCHAR
STARTCHAR guilsinglleft
ENCODING 8249
SWIDTH 367 0
DWIDTH 7 0
BBX 5 7 1 4
BITMAP
08
18
60
C0
C0
30
08
ENDCHAR
STARTCHAR guilsinglright
ENCODING 8250
SWIDTH 368 0
DWIDTH 7 0
BBX 5 7 1 4
BITMAP
80
C0
30
18
18
60
80
ENDCHAR
STARTCHAR fraction
ENCODING 8260
SWIDTH 185 0
DWIDTH 4 0
BBX 14 16 -5 -1
BITMAP
000C
0018
0030
0060
0040
00C0
0180
0300
0200
0400
0C00
1800
3000
2000
6000
C000
ENDCHAR
STARTCHAR zerosuperior
ENCODING 8304
SWIDTH 449 0
DWIDTH 9 0
BBX 7 7 1 7
BITMAP
78
C4
86
82
86
C4
78
ENDCHAR
STARTCHAR foursuperior
ENCODING 8308
SWIDTH 452 0
DWIDTH 9 0
BBX 7 7 1 7
BITMAP
84
84
84
84
FE
04
04
ENDCHAR
STARTCHAR fivesuperior
ENCODING 8309
SWIDTH 472 0
DWIDTH 9 0
BBX 7 7 1 7
BITMAP
FE
80
80
FE
02
02
FE
ENDCHAR
STARTCHAR sixsuperior
ENCODING 8310
SWIDTH 466 0
DWIDTH 9 0
BBX 7 7 1 7
BITMAP
7E
80
80
FE
82
82
7C
ENDCHAR
STARTCHAR sevensuperior
ENCODING 8311
SWIDTH 408 0
DWIDTH 8 0
BBX 6 7 1 7
BITMAP
FC
0C
18
10
20
60
C0
ENDCHAR
STARTCHAR eightsuperior
ENCODING 8312
SWIDTH 479 0
DWIDTH 9 0
BBX 7 7 1 7
BITMAP
FE
82
82
7E
82
82
FE
ENDCHAR
STARTCHAR ninesuperior
ENCODING 8313
SWIDTH 460 0
DWIDTH 9 0
BBX 7 7 1 7
BITMAP
FC
86
82
FE
02
06
FC
ENDCHAR
STARTCHAR zeroinferior
ENCODING 8320
SWIDTH 449 0
DWIDTH 9 0
BBX 7 7 1 0
BITMAP
78
C4
86
82
86
C4
78
ENDCHAR
STARTCHAR oneinferior
ENCODING 8321
SWIDTH 222 0
DWIDTH 4 0
BBX 2 7 1 0
BITMAP
C0
40
40
40
40
40
40
ENDCHAR
STARTCHAR twoinferior
ENCODING 8322
SWIDTH 442 0
DWIDTH 8 0
BBX 7 7 1 0
BITMAP
FC
06
06
FC
80
80
FE
ENDCHAR
STARTCHAR threeinferior
ENCODING 8323
SWIDTH 443 0
DWIDTH 8 0
BBX 7 7 1 0
BITMAP
FC
06
04
7C
06
06
FC
ENDCHAR
STARTCHAR fourinferior
ENCODING 8324
SWIDTH 452 0
DWIDTH 9 0
BBX 7 7 1 0
BITMAP
84
84
84
84
FE
04
04
ENDCHAR
STARTCHAR fiveinferior
ENCODING 8325
SWIDTH 472 0
DWIDTH 9 0
BBX 7 7 1 0
BITMAP
FE
80
80
FE
02
02
FE
ENDCHAR
STARTCHAR sixinferior
ENCODING 8326
SWIDTH 466 0
DWIDTH 9 0
BBX 7 7 1 0
BITMAP
7E
80
80
FE
82
82
7C
ENDCHAR
STARTCHAR seveninferior
ENCODING 8327
SWIDTH 408 0
DWIDTH 8 0
BBX 6 7 1 0
BITMAP
FC
0C
18
10
20
60
C0
ENDCHAR
STARTCHAR eightinferior
ENCODING 8328
SWIDTH 479 0
DWIDTH 9 0
BBX 7 7 1 0
BITMAP
FE
82
82
7E
82
82
FE
ENDCHAR
STARTCHAR nineinferior
ENCODING 8329
SWIDTH 460 0
DWIDTH 9 0
BBX 7 7 1 0
BITMAP
FC
86
82
FE
02
06
FC
ENDCHAR
STARTCHAR Euro
ENCODING 8364
SWIDTH 884 0
DWIDTH 17 0
BBX 15 14 1 0
BITMAP
07FE
1FFC
3E00
3800
7000
FFF0
6000
6000
FFC0
7000
3800
3E00
1FFC
07FC
ENDCHAR
STARTCHAR uni2117
ENCODING 8471
SWIDTH 829 0
DWIDTH 16 0
BBX 14 14 1 0
BITMAP
0FC0
3060
6010
4008
8FC4
8824
8824
8BC4
8804
8804
4008
6010
1060
0FC0
ENDCHAR
STARTCHAR trademark
ENCODING 8482
SWIDTH 536 0
DWIDTH 10 0
BBX 8 5 1 9
BITMAP
E9
49
4F
4F
4D
ENDCHAR
STARTCHAR onethird
ENCODING 8531
SWIDTH 951 0
DWIDTH 18 0
BBX 16 16 1 -1
BITMAP
000C
7018
1030
1020
1040
10C0
1180
1300
027F
0601
0C01
181E
1001
2001
607F
C000
ENDCHAR
STARTCHAR twothirds
ENCODING 8532
SWIDTH 979 0
DWIDTH 19 0
BBX 17 16 1 -1
BITMAP
000600
FC0C00
061800
061000
FC3000
806000
80C000
FC8000
013F00
030180
060180
0C1F00
080180
180180
303F00
600000
ENDCHAR
STARTCHAR oneeighth
ENCODING 8539
SWIDTH 985 0
DWIDTH 19 0
BBX 17 16 1 -1
BITMAP
000C00
701800
103000
102000
104000
10C000
118000
130000
023F00
066180
0C2180
183F00
106080
206080
603F00
C00000
ENDCHAR
STARTCHAR threeeighths
ENCODING 8540
SWIDTH 972 0
DWIDTH 18 0
BBX 17 16 1 -1
BITMAP
000600
FC0C00
061800
063000
7C2000
066000
06C000
FD8000
013F00
026180
066100
0C3F00
184180
104180
303F00
600000
ENDCHAR
STARTCHAR fiveeighths
ENCODING 8541
SWIDTH 973 0
DWIDTH 18 0
BBX 17 16 1 -1
BITMAP
000600
FE0C00
801800
801000
FE3000
026000
02C000
FE8000
013F00
036180
066100
0C3F00
084180
184180
303F00
600000
ENDCHAR
STARTCHAR seveneighths
ENCODING 8542
SWIDTH 965 0
DWIDTH 18 0
BBX 17 16 1 -1
BITMAP
000C00
7E1800
063000
0C2000
184000
10C000
218000
630000
023F00
064100
0C4100
183F00
104180
204100
603F00
C00000
ENDCHAR
STARTCHAR minus
ENCODING 8722
SWIDTH 690 0
DWIDTH 13 0
BBX 11 2 1 6
BITMAP
FFE0
FFE0
ENDCHAR
STARTCHAR approxequal
ENCODING 8776
SWIDTH 691 0
DWIDTH 13 0
BBX 11 7 1 4
BITMAP
7820
FFE0
83C0
0000
7820
FFE0
83C0
ENDCHAR
STARTCHAR notequal
ENCODING 8800
SWIDTH 690 0
DWIDTH 13 0
BBX 15 16 -1 -1
BITMAP
0006
0008
0018
0030
3FF8
3FF8
0080
0180
0300
3FF8
3FF8
0C00
1800
3000
2000
E000
ENDCHAR
STARTCHAR lessequal
ENCODING 8804
SWIDTH 690 0
DWIDTH 13 0
BBX 11 14 1 -1
BITMAP
0020
00E0
03C0
0F00
7800
E000
7000
1E00
0780
00E0
0020
0000
FFE0
FFE0
ENDCHAR
STARTCHAR greaterequal
ENCODING 8805
SWIDTH 690 0
DWIDTH 13 0
BBX 11 14 1 -1
BITMAP
8000
E000
7800
1E00
03C0
0060
01C0
0F00
3C00
E000
8000
0000
FFE0
FFE0
ENDCHAR
STARTCHAR .notdef
ENCODING -1
SWIDTH 430 0
DWIDTH 8 0
BBX 6 14 1 0
BITMAP
FC
84
84
84
84
84
84
84
84
84
84
84
84
FC
ENDCHAR
STARTCHAR nonmarkingreturn
ENCODING -1
SWIDTH 104 0
DWIDTH 2 0
BBX 1 1 0 0
BITMAP
00
ENDCHAR
STARTCHAR .null
ENCODING -1
SWIDTH 104 0
DWIDTH 2 0
BBX 1 1 0 0
BITMAP
00
ENDCHAR
STARTCHAR .ttfautohint
ENCODING -1
SWIDTH 104 0
DWIDTH 2 0
BBX 1 1 0 0
BITMAP
00
ENDCHAR
ENDFONT
